<svg xmlns="http://www.w3.org/2000/svg">
    <symbol id="achievements" viewBox="0 0 1000 1000">
        <g> <path class="st0" d="M498.9,625.8c-116.6,0-211.5-94.9-211.5-211.5c0-116.6,94.9-211.5,211.5-211.5s211.5,94.9,211.5,211.5
		C710.4,531,615.5,625.8,498.9,625.8z M498.9,252.8c-89.1,0-161.5,72.5-161.5,161.5s72.5,161.5,161.5,161.5s161.5-72.5,161.5-161.5
		S588,252.8,498.9,252.8z"/> </g> <g> <path class="st0" d="M217.6,902.7c-13.8,0-25-11.2-25-25c0-80.6,31.4-156.5,88.5-213.5s132.9-88.5,213.5-88.5
		c53.3,0,105.6,14.1,151.4,40.7c11.9,6.9,16,22.2,9,34.2c-6.9,11.9-22.2,16-34.2,9c-38.2-22.2-81.8-33.9-126.3-33.9
		c-138.9,0-252,113-252,252C242.6,891.5,231.4,902.7,217.6,902.7z"/> </g> <g> <path class="st0" d="M629.5,903.5c-10.3,0-19.4,0-27.5,0c-13.2,0-23.5-0.1-30.6-0.2c-14.9-0.2-21.7-0.4-29.2-7.8
		c-9.8-9.8-9.8-25.6,0-35.4c5.9-5.9,13.9-8.2,21.5-7c17.4,0.9,168.4,0.3,261.3-0.3c0.1,0,0.1,0,0.2,0c13.7,0,24.9,11.1,25,24.8
		c0.1,13.8-11,25.1-24.8,25.2c-0.7,0-66.7,0.4-132.1,0.7C668.9,903.4,647.5,903.5,629.5,903.5z"/> </g> <g> <path class="st0" d="M812.8,837.4C812.8,837.4,812.7,837.4,812.8,837.4c-13.9,0-25-11.3-25-25.1c0.2-69,0.4-173.8,0.1-185.3
		c-0.6-7.1,1.8-14.4,7.2-19.9c7.2-7.2,17.9-9.3,27.3-5.4c7.1,3,14.9,10.4,15.4,22.5c0,0.5,0,1.2,0.1,2.2c0,1.5,0.1,3.6,0.1,6.3
		c0,5.2,0.1,12.6,0.1,21.4c0,15.6,0,37.3,0,64.6c-0.1,46.4-0.2,93.3-0.2,93.7C837.7,826.2,826.6,837.4,812.8,837.4z M788,627.9
		c0.7,6.6,4.6,14.1,12.1,18.5c-1.8-1-3.4-2.3-5-3.9C791,638.4,788.6,633.2,788,627.9z"/> </g> <g> <path class="st0" d="M734.9,837.4c-0.1,0-0.1,0-0.2,0c-13.8-0.1-24.9-11.4-24.8-25.2c0.2-29.3,0.4-62,0.2-68.7
		c-0.8-6.7,1.1-13.6,5.9-19.1c6.8-8,17.9-10.8,27.8-7.1c3.6,1.4,15.5,7,16.3,23c0,0.7,0.1,1.8,0.1,3.1c0,2,0.1,4.8,0.1,8.6
		c0,6,0,14.4,0,24.9c-0.1,17.8-0.2,35.7-0.2,35.9C759.7,826.3,748.6,837.4,734.9,837.4z M710.3,745.5c0.1,0.7,0.3,1.5,0.6,2.3
		C710.7,747.1,710.5,746.3,710.3,745.5z"/> </g> <g> <path class="st0" d="M654.1,837.4c0,0-0.1,0-0.1,0c-13.8-0.1-24.9-11.3-24.9-25.1c0.2-39.6,0.4-104.2,0.1-113.6
		c-0.7-7.2,1.7-14.7,7.2-20.2c7.2-7.2,18-9.3,27.3-5.4c4.5,1.9,15,7.9,15.5,23.6c0,1,0.1,2.4,0.1,4.2c0,3.3,0.1,7.9,0.1,13.5
		c0,9.7,0,23.2,0,40.1c-0.1,28.7-0.2,57.8-0.2,58.1C679,826.3,667.8,837.4,654.1,837.4z M629.4,699.7c0.9,6.4,4.7,13.6,11.9,17.8
		c-1.7-1-3.4-2.3-4.9-3.8C632.5,709.8,630.1,704.8,629.4,699.7z"/> </g> <g> <path class="st0" d="M574.6,837.4c-0.1,0-0.2,0-0.3,0c-13.8-0.1-24.9-11.4-24.7-25.3c0.2-22.7,0.4-48.3,0.2-54.3
		c-0.9-7.4,1.5-15.1,7.1-20.7c7.2-7.2,18-9.3,27.4-5.4c3.4,1.4,14.4,7.2,15.4,22.2c0,0.7,0.1,1.6,0.1,2.8c0,1.7,0.1,4,0.1,7
		c0,4.9,0,11.6,0,20c-0.1,14.3-0.2,28.7-0.2,28.8C599.5,826.3,588.3,837.4,574.6,837.4z"/> </g> 
    </symbol>
    <symbol id="archives" viewBox="0 0 1000 1000">
        <g> <path class="st0" d="M636.4,944.1H251.7c-13.8,0-25-11.2-25-25s11.2-25,25-25h164.4v-113c0-13.8,11.2-25,25-25h332.1v-362
		c-85.5-1-394-0.2-618.3,0.7v361.3h73.3l125.1-171c7.6-10.4,21.8-13.3,32.8-6.8l75.7,44.5l100-95.2c10-9.5,25.8-9.1,35.3,0.9
		c9.5,10,9.1,25.8-0.9,35.3L482.7,672.1c-8.1,7.7-20.3,9.1-29.9,3.4l-72.5-42.6l-119.3,163c-4.7,6.4-12.2,10.2-20.2,10.2H130
		c-13.8,0-25-11.2-25-25V369.9c0-13.8,11.1-24.9,24.9-25c1.7,0,168.3-0.7,333.2-1c96.8-0.2,174.1-0.2,229.7-0.1
		c33,0.1,58.7,0.2,76.3,0.4c9.5,0.1,16.9,0.2,21.9,0.3c10.2,0.3,17.7,0.5,25,7.7c4.7,4.7,7.4,11.1,7.4,17.7v411.2
		c0,13.8-11.2,25-25,25H466.1v88h170.3c13.8,0,25,11.2,25,25S650.2,944.1,636.4,944.1z"/> </g> <g> <path class="st0" d="M639.8,574.2c-46.6,0-84.6-37.9-84.6-84.6s37.9-84.6,84.6-84.6s84.6,37.9,84.6,84.6S686.5,574.2,639.8,574.2z
		 M639.8,455c-19.1,0-34.6,15.5-34.6,34.6s15.5,34.6,34.6,34.6s34.6-15.5,34.6-34.6S658.9,455,639.8,455z"/> </g> 
    </symbol>
    <symbol id="awards" viewBox="0 0 1000 1000">
        <g> <path class="st0" d="M577.8,714.7h-80.9c-82.1,0-148.9-66.8-148.9-148.9V202.3c0-13.8,11.2-25,25-25h328.7c13.8,0,25,11.2,25,25
		v363.5C726.7,647.9,659.9,714.7,577.8,714.7z M398,227.3v338.5c0,54.5,44.4,98.9,98.9,98.9h80.9c54.5,0,98.9-44.4,98.9-98.9V227.3
		H398z"/> </g> <g> <path class="st0" d="M356.5,545.9L205.6,414.2c-5.4-4.7-8.6-11.6-8.6-18.8V268.7c0-13.8,11.2-25,25-25h152v50h-127V384l142.3,124.3
		L356.5,545.9z"/> </g> <g> <path class="st0" d="M720.1,545.9l-32.9-37.7L829.4,384v-90.3h-127v-50h152c13.8,0,25,11.2,25,25v126.7c0,7.2-3.1,14.1-8.6,18.8
		L720.1,545.9z"/> </g> <g> <path class="st0" d="M702.5,894.8H364c-13.8,0-25-11.2-25-25s11.2-25,25-25h148.3V689.7c0-13.8,11.2-25,25-25s25,11.2,25,25v155.1
		h140.1c13.8,0,25,11.2,25,25S716.3,894.8,702.5,894.8z"/> </g> <g> <path class="st0" d="M616.3,449.1c-13.8,0-25-11.2-25-25V311.8c0-13.8,11.2-25,25-25s25,11.2,25,25v112.3
		C641.3,437.9,630.1,449.1,616.3,449.1z"/> </g> 
    </symbol>
    <symbol id="balance" viewBox="0 0 1000 1000">
        <g> <path class="st0" d="M499.9,903.8c-105.5,0-205.4-40.5-281.1-113.9c-75.6-73.3-119-171.5-122.4-276.6
		c-0.4-13.8,10.4-25.3,24.2-25.8c13.8-0.4,25.3,10.4,25.8,24.2c6.2,191.9,161.5,342.1,353.6,342.1c190.2,0,345.5-148.8,353.4-338.7
		c0.2-5,0.3-10.1,0.3-15.1c0-195.1-158.7-353.8-353.8-353.8c-151.5,0-286.1,96.3-334.9,239.6c-4.5,13.1-18.7,20.1-31.7,15.6
		c-13.1-4.5-20.1-18.7-15.6-31.7c13.4-39.4,32.8-76.3,57.7-109.8c24.6-33.1,53.9-62.2,87.3-86.5c69.3-50.4,151.4-77.1,237.3-77.1
		c54.5,0,107.4,10.7,157.2,31.7c48.1,20.3,91.3,49.4,128.3,86.5c37.1,37.1,66.2,80.3,86.5,128.3c21.1,49.8,31.7,102.7,31.7,157.2
		c0,5.7-0.1,11.5-0.4,17.2c-4.4,104.2-48.3,201.5-123.6,273.9C704.1,863.8,604.8,903.8,499.9,903.8z"/> </g> <g> <path class="st0" d="M637.1,667.7c-0.1,0-0.2,0-0.3,0c-10.1-0.1-19.1-6.3-22.9-15.7l-123-305.8L388.6,584.9
		c-3.7,8.6-11.8,14.4-21.1,15.1c-9.3,0.7-18.2-3.9-23.1-11.8l-76.5-124l-42,65.4c-4.6,7.2-12.5,11.5-21,11.5h-81.1
		c-13.8,0-25-11.2-25-25c0-13.8,11.2-25,25-25h67.4l56.1-87.3c4.6-7.2,12.7-11.5,21.3-11.5c8.6,0.1,16.5,4.6,21,11.9l72,116.8
		l107-249.7c3.9-9.2,13-15.2,23-15.2c0.1,0,0.2,0,0.3,0c10.1,0.1,19.1,6.3,22.9,15.7L638,577.9l64.3-148c3.6-8.3,11.4-14,20.3-14.9
		c9-0.9,17.7,3,23,10.4l46.8,65.8h69.1c13.8,0,25,11.2,25,25c0,13.8-11.2,25-25,25h-82c-8.1,0-15.7-3.9-20.4-10.5l-28.6-40.2
		L660,652.7C656,661.8,647,667.7,637.1,667.7z"/> </g> 
    </symbol>
    <symbol id="bonus" viewBox="0 0 1000 1000">
        <g> <path class="st0" d="M185.6,444c-2,0-4.1-0.2-6.1-0.8c-13.4-3.4-21.5-17-18.1-30.4c19.3-76.4,64.1-145.5,126.3-194.6
		c31.1-24.6,65.8-43.7,103-56.9c38.5-13.6,78.9-20.5,120.2-20.5c122.6,0,233.9,62,299.4,159.6V258c0-13.8,11.2-25,25-25c0,0,0,0,0,0
		c13.8,0,25,11.2,25,25v157.9c0,12.6-9.3,23.2-21.8,24.8c-12.5,1.6-24.2-6.3-27.4-18.4C775.2,286,651.7,190.8,510.8,190.8
		c-142.4,0-266.1,96.3-301,234.2C206.9,436.4,196.8,444,185.6,444z"/> </g> <g> <path class="st0" d="M510.8,861.6c-41.3,0-81.9-6.9-120.5-20.6c-37.3-13.2-72-32.5-103.2-57.2c-33.5-26.5-61.9-58.8-83.9-94.9V721
		c0,13.8-11.2,25-25,25c-13.8,0-25-11.2-25-25V544.5c0-13.2,10.2-24.1,23.4-24.9c13.2-0.8,24.7,8.7,26.4,21.8
		c1.5,11.4,3.6,22.9,6.6,35.2c34.4,138.5,158.2,235.2,301.2,235.2c156.6,0,289.1-117.1,308.1-272.3c1.7-13.7,14.1-23.5,27.9-21.8
		c13.7,1.7,23.5,14.1,21.8,27.9C846.4,725.7,692.6,861.6,510.8,861.6z"/> </g> <g class="st2"> <g> <path class="st0" d="M524,784.6L524,784.6c-9.2,0-16.6-7.4-16.6-16.6v-47.6c-43.2,0-79.1-8.9-107.5-26.7v-57.2
			c28.4,23.3,64.3,35.8,107.5,37.5V521.9c-45.7-21.4-75.4-41.4-89-60c-13.6-18.6-20.5-40.6-20.5-66c0-29.6,10.2-55.3,30.6-77.2
			c20.4-21.9,46.7-35,78.9-39.4v-38.8c0-9.2,7.4-16.6,16.6-16.6l0,0c9.2,0,16.6,7.4,16.6,16.6v37.7c41.5,1.5,69.8,7.4,84.7,17.6
			v55.7c-21.8-16.7-50-25.7-84.7-27v157c42.8,19.5,72.3,39,88.4,58.4c16.1,19.4,24.2,41.3,24.2,65.5c0,30.5-10.1,55.6-30.4,75.2
			c-20.3,19.6-47.7,32-82.2,37.1V768C540.6,777.2,533.2,784.6,524,784.6z M507.4,326.2c-36.4,8-54.6,29.1-54.6,63.4
			c0,16.5,3.9,30.1,11.7,40.9c7.8,10.8,22.1,22,42.9,33.6V326.2z M540.6,671.7c38.5-8.3,57.7-28.9,57.7-61.7
			c0-27.5-19.2-51.5-57.7-71.9V671.7z"/> </g> </g> 
    </symbol>
    <symbol id="budget" viewBox="0 0 1000 1000">
        <line class="st2" x1="510.3" y1="284.6" x2="870" y2="284.6"/> <line class="st2" x1="220.5" y1="284.6" x2="346.3" y2="284.6"/> <line class="st2" x1="671.5" y1="523.1" x2="870" y2="523.1"/> <line class="st2" x1="220.5" y1="523.1" x2="507.5" y2="523.1"/> <line class="st2" x1="616.4" y1="757.1" x2="870" y2="757.1"/> <line class="st2" x1="220.5" y1="757.1" x2="452.4" y2="757.1"/> <circle class="st1" cx="589.6" cy="523.1" r="81.9"/> <circle class="st1" cx="428.3" cy="284.6" r="81.9"/> <circle class="st1" cx="534.5" cy="757.1" r="81.9"/> 
    </symbol>
    <symbol id="bussiness" viewBox="0 0 1000 1000">
        <g> <path class="st0" d="M773,823.3H161.7c-20.2,0-36.7-16.5-36.7-36.7V367.2c0-20.2,16.5-36.7,36.7-36.7H773
		c20.2,0,36.7,16.5,36.7,36.7v419.3C809.7,806.8,793.2,823.3,773,823.3z M175,773.3h584.7V380.5H175V773.3z"/> </g> <g> <path class="st0" d="M511.8,594.2c-10.4,0-20.1-6.5-23.6-16.9c-4.5-13.1,2.4-27.3,15.5-31.8c68.1-23.5,191.8-65.4,244.7-83.3
		l0.5-0.2c6.5-2.2,10.9-8.3,10.9-15.2v-35.3c0-13.8,11.2-25,25-25s25,11.2,25,25v35.3c0,28.3-18,53.4-44.9,62.5l-0.5,0.2
		C711.6,527.5,588,569.4,520,592.8C517.3,593.7,514.5,594.2,511.8,594.2z"/> </g> <g> <path class="st0" d="M419.1,594.7c-2.9,0-5.9-0.5-8.8-1.6c-27.1-10.2-63.6-24-101.1-38.1c-53.9-20.3-109.6-41.4-141.4-53.3
		c-25.6-9.6-42.8-34.4-42.8-61.8v-38.6c0-13.8,11.2-25,25-25s25,11.2,25,25v38.6c0,6.7,4.1,12.7,10.3,14.9c0,0,0.1,0,0.1,0
		c31.8,12,87.5,33,141.4,53.4c37.4,14.1,74,27.9,101.1,38.1c12.9,4.9,19.4,19.3,14.6,32.2C438.7,588.5,429.2,594.7,419.1,594.7z"/> </g> <g> <path class="st0" d="M493.2,653.8H437c-20.2,0-36.7-16.5-36.7-36.7v-83.5c0-20.2,16.5-36.7,36.7-36.7h56.2
		c20.2,0,36.7,16.5,36.7,36.7v83.5C529.9,637.4,513.4,653.8,493.2,653.8z M450.3,603.8h29.6v-56.9h-29.6V603.8z"/> </g> <g> <path class="st0" d="M602.5,380.5H330c-20.2,0-36.7-16.5-36.7-36.7v-51.2c0-40.8,33.2-74,74-74h197.9c40.8,0,74,33.2,74,74v51.2
		c0,0.1,0,0.3,0,0.4C639,364.2,622.4,380.5,602.5,380.5z M343.3,330.5h246v-37.9c0-13.2-10.8-24-24-24H367.3c-13.2,0-24,10.8-24,24
		V330.5z"/> </g> 
    </symbol>
    <symbol id="capital" viewBox="0 0 1000 1000">
        <g> <path class="st0" d="M842.9,794.9h-565c-35.2,0-63.9-28.7-63.9-63.9V339.7c0-7.9,3.8-15.4,10.1-20.1s14.6-6.1,22.2-3.8l322.7,99
		l305.3-95.3c7.6-2.4,15.9-1,22.3,3.7c6.4,4.7,10.2,12.2,10.2,20.1v387.8C906.8,766.3,878.1,794.9,842.9,794.9z M264,373.5v357.6
		c0,7.6,6.2,13.9,13.9,13.9h565c7.6,0,13.9-6.2,13.9-13.9V377.3l-280.2,87.5c-4.8,1.5-10,1.5-14.8,0L264,373.5z"/> </g> <g> <path class="st0" d="M360,386.8c-1.7-4.8-1.9-5.3-1.8-48c0-22.5,0.2-48.6,0.3-65.5c0.2-26.1,21.6-47.4,47.7-47.4H729
		c26.3,0,47.7,21.4,47.7,47.7v113h-50V276H408.5c-0.3,43.8-0.4,93.8,0,100c0-0.4-0.2-2.8-1.2-5.7L360,386.8z"/> </g> <g> <path class="st0" d="M672,373.6H462.3c-13.8,0-25-11.2-25-25s11.2-25,25-25H672c13.8,0,25,11.2,25,25S685.8,373.6,672,373.6z"/> </g> <g> <path class="st0" d="M310.4,373.6c-9.8,0-19.2-5.9-23.1-15.5l-25.5-62.2c-10.6-25.8,1-55.1,26.4-66.5l247.3-112.6
		c25.4-11.5,55-1,67.4,23.7l46.3,91.1c6.2,12.3,1.3,27.4-11,33.6c-12.3,6.2-27.4,1.3-33.6-11l-46.3-91.2c-0.5-0.9-1.5-1.1-2.2-0.7
		L308.8,274.9c-0.7,0.3-1.2,1.1-0.8,2l25.5,62.2c5.2,12.8-0.9,27.4-13.7,32.6C316.8,373,313.6,373.6,310.4,373.6z"/> </g> <g> <path class="st0" d="M561.3,601.5c-0.2,0-0.5,0-0.7,0c-8.2-0.2-15.8-4.5-20.3-11.4l-54.7-84.4c-7.5-11.6-4.2-27.1,7.4-34.6
		c11.6-7.5,27.1-4.2,34.6,7.4l34.9,53.9l40.2-55c8.1-11.2,23.8-13.6,34.9-5.4c11.2,8.1,13.6,23.8,5.4,34.9l-61.6,84.4
		C576.7,597.7,569.2,601.5,561.3,601.5z"/> </g> <g> <path class="st0" d="M641,605.1H484.2c-13.8,0-25-11.2-25-25s11.2-25,25-25H641c13.8,0,25,11.2,25,25S654.8,605.1,641,605.1z"/> </g> <g> <path class="st0" d="M641,680.4H484.2c-13.8,0-25-11.2-25-25s11.2-25,25-25H641c13.8,0,25,11.2,25,25S654.8,680.4,641,680.4z"/> </g> <g> <path class="st0" d="M564.7,738.9c-13.8,0-25-11.2-25-25V576.5c0-13.8,11.2-25,25-25s25,11.2,25,25v137.4
		C589.7,727.7,578.5,738.9,564.7,738.9z"/> </g> 
    </symbol>
    <symbol id="commission" viewBox="0 0 1024 1024">
        <path class="st0" d="M186.7,407.8C223.4,262.4,355,154.7,511.9,154.7c155.7,0,286.6,106.2,324.4,250c0,0,0-161,0-157.8"/> <path class="st0" d="M844.8,531.2C824.5,697,683.1,825.5,511.9,825.5c-157.3,0-289.3-108.3-325.5-254.3c-3-12.4-5.5-25-7.1-37.9
	v176.6"/> <g class="st1"> <path class="st2" d="M525.1,773.4L525.1,773.4c-9.2,0-16.6-7.4-16.6-16.6v-47.6c-43.2,0-79.1-8.9-107.5-26.7v-57.2
		c28.4,23.3,64.3,35.8,107.5,37.5V510.7c-45.7-21.4-75.4-41.4-89-60c-13.6-18.6-20.5-40.6-20.5-66c0-29.6,10.2-55.3,30.6-77.2
		c20.4-21.9,46.7-35,78.9-39.4v-38.8c0-9.2,7.4-16.6,16.6-16.6l0,0c9.2,0,16.6,7.4,16.6,16.6V267c41.5,1.5,69.8,7.4,84.7,17.6v55.7
		c-21.8-16.7-50-25.7-84.7-27v157c42.8,19.5,72.3,39,88.4,58.4c16.1,19.4,24.2,41.3,24.2,65.5c0,30.5-10.1,55.6-30.4,75.2
		c-20.3,19.6-47.7,32-82.2,37.1v50.2C541.7,766,534.3,773.4,525.1,773.4z M508.5,315c-36.4,8-54.6,29.1-54.6,63.4
		c0,16.5,3.9,30.1,11.7,40.9c7.8,10.8,22.1,22,42.9,33.6V315z M541.7,660.5c38.5-8.3,57.7-28.9,57.7-61.7
		c0-27.5-19.2-51.5-57.7-71.9V660.5z"/> </g> 
    </symbol>
    <symbol id="contract" viewBox="0 0 1000 1000">
        <g> <path class="st0" d="M728.9,883.3H250.5c-20.2,0-36.7-16.5-36.7-36.7V251.1c0-20.2,16.5-36.7,36.7-36.7h478.3
		c20.2,0,36.7,16.5,36.7,36.7v595.5C765.6,866.9,749.1,883.3,728.9,883.3z M263.8,833.3h451.8V264.4H263.8V833.3z"/> </g> <g> <path class="st0" d="M637.1,491C637,491,637,491,637.1,491c-2.3,0-227.5-0.7-286.5-0.3c-0.1,0-0.1,0-0.2,0
		c-13.7,0-24.9-11.1-25-24.8c-0.1-13.8,11-25.1,24.8-25.2c59.2-0.4,284.6,0.3,286.9,0.3c13.8,0,25,11.3,24.9,25.1
		C662,479.8,650.8,491,637.1,491z"/> </g> <g> <path class="st0" d="M637.1,420.4C637,420.4,637,420.4,637.1,420.4c-2.3,0-227.5-0.7-286.5-0.3c-0.1,0-0.1,0-0.2,0
		c-13.7,0-24.9-11.1-25-24.8c-0.1-13.8,11-25.1,24.8-25.2c59.2-0.4,284.6,0.3,286.9,0.3c13.8,0,25,11.3,24.9,25.1
		C662,409.2,650.8,420.4,637.1,420.4z"/> </g> <g> <path class="st0" d="M637.1,347.1C637,347.1,637,347.1,637.1,347.1c-2.3,0-227.5-0.7-286.5-0.3c-13.8,0-25.1-11-25.2-24.8
		c-0.1-13.8,11-25.1,24.8-25.2c59.2-0.4,284.6,0.3,286.9,0.3c13.8,0,25,11.3,24.9,25.1C662,336,650.8,347.1,637.1,347.1z"/> </g> <g> <path class="st0" d="M556.6,563.2c-12.1,0-22.7-8.7-24.7-21c-2.2-13.6,7.1-26.5,20.7-28.6c2.3-0.4,7.6-1.2,80.3-0.3
		c13.8,0.2,24.9,11.5,24.7,25.3c-0.2,13.7-11.3,24.7-25,24.7c-0.1,0-0.2,0-0.3,0c-31.2-0.4-66.6-0.6-72.7-0.2
		C558.6,563.2,557.6,563.2,556.6,563.2z M560.6,562.9c-0.3,0-0.5,0.1-0.8,0.1C560.1,563,560.4,562.9,560.6,562.9z"/> </g> <g> <path class="st0" d="M427.8,808.7c-78.5,0-142.3-63.8-142.3-142.3s63.8-142.3,142.3-142.3c78.5,0,142.3,63.8,142.3,142.3
		S506.2,808.7,427.8,808.7z M427.8,574.2c-50.9,0-92.3,41.4-92.3,92.3s41.4,92.3,92.3,92.3s92.3-41.4,92.3-92.3
		S478.7,574.2,427.8,574.2z"/> </g> <g> <polygon class="st0" points="428.8,590.9 407.1,636.3 356.6,642.7 393.1,678.3 384.5,727.6 429.6,705.3 473.5,728.7 465.7,678.9 
		501.4,643.6 451.5,636.3 	"/> </g> 
    </symbol>
    <symbol id="finance" viewBox="0 0 1000 1000">
        <g> <g> <path class="st0" d="M682.8,584.6c-4.8,0-9.7-1.4-14-4.3c-11.4-7.7-14.4-23.3-6.7-34.7c27.7-40.9,42.3-88.8,42.3-138.4
			c0-136.6-111.1-247.7-247.7-247.7S209.1,270.6,209.1,407.1c0,13.8-11.2,25-25,25s-25-11.2-25-25c0-79.5,31-154.3,87.2-210.5
			s131-87.2,210.5-87.2s154.3,31,210.5,87.2s87.2,131,87.2,210.5c0,59.7-17.6,117.2-50.9,166.4C698.7,580.7,690.8,584.6,682.8,584.6
			z"/> </g> <g> <path class="st0" d="M549.8,825.8C549.8,825.8,549.8,825.8,549.8,825.8c-67.3,0-119-1.5-153.7-4.6c-55.4-4.8-111-28.8-165.4-71.1
			c-45.2-35.2-80.9-76.7-102.8-105.3c-35.5-46.2-31.3-96.7-17-125.9c10.4-21.1,27.3-33.7,45.2-33.7c1.6,0,3.2,0.1,4.7,0.3
			c21.7,2.7,44.5,23.7,89.9,67.2c22.6,21.6,48.2,46.1,74.4,67.6c29.5,24.1,102.7,38,200.8,38c0.8,0,1.5,0,2.3,0
			c-8.5-14.9-16.9-31-20.4-42.3c-5.1-16-1.2-27.9,3-35c9.9-16.9,29.1-20.7,35.4-21.9c0.1,0,0.3-0.1,0.4-0.1c2.1-0.5,4.2-0.8,6.3-0.8
			c5.3,0,6.6,0,47.2,15.4c20.9,7.9,49,18.8,79.1,30.6c29.5,11.6,57.4,22.6,78.6,31.2c37.1,15,40.5,16.6,44.1,20
			c5.2,4.6,8.4,11.2,8.4,18.7v122.3c0,13.4-10.6,24.5-24.1,25C784.9,821.3,663.6,825.8,549.8,825.8z M157.8,537.3
			c-2.4,3.5-5.3,9.9-6.7,18.8c-1.8,11.5-2.1,34.3,16.3,58.3c42.1,54.7,128.2,147.9,232.9,157c33.3,2.9,83.5,4.4,149.4,4.4
			c82.7,0,169.5-2.4,210.5-3.7v-81.8c-40.8-16.9-159.5-63.4-200.2-78.4c8.1,16.7,23.2,41.7,32.9,56.6c4.8,7.5,5.4,16.9,1.4,24.9
			c-4,7.9-11.9,13.2-20.8,13.7c-0.8,0-19.6,1.2-47.6,1.2c-78.6,0-182.7-8.5-232.4-49.3c-27.7-22.7-54-47.9-77.3-70.1
			c-15.1-14.5-29.4-28.2-41.2-38.3C166.6,543.4,161.1,539.4,157.8,537.3z M545.5,559.2c-0.1,0-0.3,0.1-0.5,0.1
			C545.2,559.3,545.4,559.2,545.5,559.2z"/> </g> <g> <path class="st0" d="M459.7,346.4c-6.3,0-12.5-2.3-17.3-7l-79.8-76.8c-10-9.6-10.3-25.4-0.7-35.3s25.4-10.3,35.3-0.7l62.9,60.5
			l63.6-58.3c10.2-9.3,26-8.7,35.3,1.5c9.3,10.2,8.7,26-1.5,35.3l-80.9,74.2C471.9,344.2,465.8,346.4,459.7,346.4z"/> </g> <g> <path class="st0" d="M461.2,571.2c-13.8,0-25-11.2-25-25V332.5c0-13.8,11.2-25,25-25s25,11.2,25,25v213.7
			C486.2,560,475,571.2,461.2,571.2z"/> </g> <g> <path class="st0" d="M540.6,401.5H373.8c-13.8,0-25-11.2-25-25s11.2-25,25-25h166.8c13.8,0,25,11.2,25,25S554.4,401.5,540.6,401.5
			z"/> </g> <g> <path class="st0" d="M540.6,480.8H373.8c-13.8,0-25-11.2-25-25s11.2-25,25-25h166.8c13.8,0,25,11.2,25,25S554.4,480.8,540.6,480.8
			z"/> </g> </g> 
    </symbol>
    <symbol id="force" viewBox="0 0 1000 1000">
        <g> <path class="st0" d="M741.9,847.9c-2.3,0-4.6-0.3-6.9-1l-192.7-55.5c-13.3-3.8-20.9-17.7-17.1-30.9c3.8-13.3,17.7-20.9,30.9-17.1
		l164.2,47.3l55.8-506.8L197,597.3l136.8,53.4c12.9,5,19.2,19.5,14.2,32.4c-5,12.9-19.5,19.2-32.4,14.2l-187-73
		c-9.1-3.5-15.3-12-15.9-21.7s4.5-18.9,13.1-23.5l668.6-361.9c8.2-4.4,18.1-3.9,25.9,1.2c7.7,5.2,11.9,14.2,10.9,23.5l-64.3,583.8
		c-0.8,7.3-4.8,13.9-10.9,18C751.7,846.4,746.9,847.9,741.9,847.9z"/> </g> <g> <path class="st0" d="M461.7,847.9c-13.8,0-25-11.2-25-25V671.1c0-5.7,1.9-11.2,5.5-15.6l344.5-432c8.6-10.8,24.3-12.6,35.1-4
		c10.8,8.6,12.6,24.3,4,35.1L486.7,679.8v143C486.7,836.7,475.5,847.9,461.7,847.9z"/> </g> 
    </symbol>
    <symbol id="house" viewBox="0 0 1000 1000">
        <g> <path class="st0" d="M134.4,540.9c-18.1,0-33.8-11-40-27.9c-6.2-16.9-1.3-35.4,12.5-47l340.9-288.5c15.9-13.5,39-13.5,55,0.1
		l335.7,287.9c13.6,11.7,18.4,30.2,12.2,47c-6.2,16.8-21.8,27.7-39.8,27.7l-73.7,0.1c0,0,0,0,0,0c-13.8,0-25-11.2-25-25
		c0-13.8,11.2-25,25-25l53.4-0.1L475.2,219.8L155,490.9l45.9-0.1c0,0,0,0,0,0c13.8,0,25,11.2,25,25c0,13.8-11.2,25-25,25
		L134.4,540.9z"/> </g> <g> <path class="st0" d="M602.3,915.1h-252c-13.8,0-25-11.2-25-25V516c0-13.8,11.2-25,25-25h252c13.8,0,25,11.2,25,25v374.1
		C627.3,903.9,616.1,915.1,602.3,915.1z M375.3,865.1h202V541h-202V865.1z"/> </g> <g> <path class="st0" d="M685.8,915H253.1c-41.5,0-75.3-33.8-75.3-75.3V516c0-13.8,11.2-25,25-25s25,11.2,25,25v323.7
		c0,13.9,11.3,25.3,25.3,25.3h432.6c13.9,0,25.3-11.3,25.3-25.3V516c0-13.8,11.2-25,25-25s25,11.2,25,25v323.7
		C761.1,881.3,727.3,915,685.8,915z"/> </g> <g> <path class="st0" d="M428.9,747.1c-13.8,0-25-11.2-25-25v-90.8c0-13.8,11.2-25,25-25s25,11.2,25,25v90.8
		C453.9,735.9,442.7,747.1,428.9,747.1z"/> </g> 
    </symbol>
    <symbol id="index" viewBox="0 0 1000 1000">
        <g> <path class="st0" d="M463.1,523.6H245c-20.2,0-36.7-16.5-36.7-36.7V268.8c0-20.2,16.5-36.7,36.7-36.7h218.1
		c20.2,0,36.7,16.5,36.7,36.7v218.1C499.8,507.1,483.3,523.6,463.1,523.6z M258.3,473.6h191.5V282.1H258.3V473.6z"/> </g> <g> <path class="st0" d="M788.6,523.6H570.5c-20.2,0-36.7-16.5-36.7-36.7V268.8c0-20.2,16.5-36.7,36.7-36.7h218.1
		c20.2,0,36.7,16.5,36.7,36.7v218.1C825.3,507.1,808.8,523.6,788.6,523.6z M583.8,473.6h191.5V282.1H583.8V473.6z"/> </g> <g> <path class="st0" d="M463.1,847H245c-20.2,0-36.7-16.5-36.7-36.7V592.3c0-20.2,16.5-36.7,36.7-36.7h218.1
		c20.2,0,36.7,16.5,36.7,36.7v218.1C499.8,830.6,483.3,847,463.1,847z M258.3,797h191.5V605.5H258.3V797z"/> </g> <g> <path class="st0" d="M788.6,847H570.5c-20.2,0-36.7-16.5-36.7-36.7V592.3c0-20.2,16.5-36.7,36.7-36.7h218.1
		c20.2,0,36.7,16.5,36.7,36.7v218.1C825.3,830.6,808.8,847,788.6,847z M583.8,797h191.5V605.5H583.8V797z"/> </g> 
    </symbol>
    <symbol id="know" viewBox="0 0 1000 1000">
        <g> <path class="st0" d="M518.7,638.6c-3.3,0-6.7-0.7-9.8-2L109.5,466.2c-9.1-3.9-15-12.7-15.2-22.5c-0.2-9.9,5.5-18.9,14.4-23.1
		l395.9-185.8c6.7-3.1,14.4-3.2,21.1-0.1l389.6,179.8c8.9,4.1,14.5,13,14.5,22.7c0,9.8-5.7,18.6-14.6,22.7L529.1,636.4
		C525.8,637.9,522.2,638.6,518.7,638.6z M180.4,442.1l337.9,144.2l326.6-149.2L515.3,285L180.4,442.1z"/> </g> <g> <path class="st0" d="M178,669.4c-13.8,0-25-11.2-25-25V470.6c0-13.8,11.2-25,25-25s25,11.2,25,25v173.8
		C203,658.2,191.8,669.4,178,669.4z"/> </g> <g> <path class="st0" d="M178,771c-13.8,0-25-11.2-25-25v-33.4c0-13.8,11.2-25,25-25s25,11.2,25,25V746C203,759.8,191.8,771,178,771z"/> </g> <g> <path class="st0" d="M517,895.4c-4.4,0-8.9,0-13.5-0.1c-226.9-4.7-259.9-127.4-261.2-132.6c-0.5-2-0.7-4-0.7-6V517.4
		c0-13.8,11.2-25,25-25s25,11.2,25,25v235.3c2.5,6.4,10.9,24.2,34.1,42.7c27.2,21.7,80.4,48,178.9,50
		c106.9,2.2,167.7-24.8,199.8-47.8c26.9-19.3,38.5-38.5,42.3-46.2v-234c0-13.8,11.2-25,25-25s25,11.2,25,25v239.3
		c0,2.8-0.5,5.7-1.4,8.3C793.3,770.4,746.4,895.4,517,895.4z"/> </g> <g> <path class="st0" d="M517.9,768.4c-181.6,0-262.8-85.9-266.4-89.8l36.8-33.8l-0.1-0.1c0.2,0.2,20.6,21.5,63.5,41
		c39.7,18,107.5,38.1,204.7,31.4c13.8-1,25.7,9.4,26.7,23.2c1,13.8-9.4,25.7-23.2,26.7C545.3,767.9,531.3,768.4,517.9,768.4z"/> </g> <g> <path class="st0" d="M644.3,756.2c-12.2,0-22.9-8.9-24.7-21.4c-2-13.7,7.4-26.4,21.1-28.4c44.4-6.6,95.3-44.4,111.1-58.4
		c10.3-9.2,26.1-8.2,35.3,2.1c9.2,10.3,8.2,26.1-2.1,35.3c-2.8,2.5-68.9,60.4-137,70.5C646.8,756.1,645.6,756.2,644.3,756.2z"/> </g> 
    </symbol>
    <symbol id="material" viewBox="0 0 1000 1000">
        <g> <path class="st0" d="M421,863.2c-82.3,0-281.1-20.1-350-206.6c-2.7-7.4-1.8-15.7,2.5-22.3c4.3-6.6,11.5-10.8,19.4-11.3
		c0.3,0,7-0.4,18.4-0.4c36.2,0,107.9,3.9,180.8,29.9c42.4,15.1,79.2,35.7,109.4,61.2c36.7,31,63.8,69.4,80.6,114.2
		c2.7,7.2,1.9,15.3-2.1,21.8c-4,6.6-10.8,10.9-18.5,11.8C460.9,861.5,445.4,863.2,421,863.2z M133.2,673
		c68.5,125.3,220.5,140.1,287.1,140.2C354.8,697.1,204.7,676.2,133.2,673z"/> </g> <g> <path class="st0" d="M496.4,863.2C496.4,863.2,496.4,863.2,496.4,863.2c-24.4,0-39.9-1.7-40.5-1.8c-7.6-0.9-14.5-5.2-18.5-11.8
		s-4.8-14.6-2.1-21.8c16.8-44.8,43.9-83.2,80.6-114.2c30.2-25.5,67-46,109.4-61.2c73-26,144.6-29.9,180.8-29.9
		c11.4,0,18.1,0.4,18.4,0.4c7.9,0.5,15.1,4.7,19.4,11.3c4.3,6.6,5.2,14.9,2.5,22.3C777.5,843.1,578.7,863.2,496.4,863.2z M784.2,673
		c-71.5,3.1-221.6,24.1-287.1,140.2C563.7,813.1,715.7,798.4,784.2,673z"/> </g> <g> <path class="st0" d="M451.8,673.9c-0.8,0-1.7,0-2.5-0.1c-2.3-0.2-56.1-5.9-113.4-33.8c-78.5-38.1-125.7-99.1-136.6-176.5
		c-1.1-7.8,1.6-15.7,7.2-21.3c5.6-5.6,13.5-8.1,21.4-6.9c2.3,0.3,55.9,8.8,112.9,37.9c77.9,39.7,124.8,98.8,135.6,171
		c0.3,1.5,0.4,3.1,0.4,4.7c0,13.7-11.1,24.9-24.8,25C451.9,673.9,451.9,673.9,451.8,673.9z M258.3,494c16,42.6,48.9,76.2,98.2,100.4
		c22,10.8,43.6,17.8,61,22.3C387.8,543.3,306.7,508.6,258.3,494z"/> </g> <g> <path class="st0" d="M452.6,673.9c-6.8,0-13.3-2.8-18-7.7c-5.3-5.6-7.8-13.3-6.7-20.9c10.5-72.7,57.5-132.2,135.8-172.1
		c57-29,110.6-37.5,112.9-37.9c7.8-1.2,15.7,1.4,21.4,6.9c5.6,5.6,8.3,13.4,7.2,21.3C694.2,540.9,647,601.9,568.5,640
		c-57.3,27.8-111.1,33.5-113.4,33.8C454.3,673.8,453.4,673.9,452.6,673.9z M646.1,494c-17.4,5.2-39,13.1-60.9,24.3
		c-49.4,25.4-82.4,58.4-98.4,98.4c17.4-4.5,39.1-11.5,61.1-22.3C597.2,570.2,630.1,536.5,646.1,494z"/> </g> <g> <path class="st0" d="M451.8,477c-0.8,0-1.7,0-2.5-0.1c-2.3-0.2-56.1-5.9-113.4-33.8C257.4,405,210.2,344,199.3,266.6
		c-1.1-7.8,1.6-15.7,7.2-21.3c5.6-5.6,13.5-8.1,21.4-6.9c2.3,0.3,55.9,8.8,112.9,37.9c77.9,39.7,124.8,98.8,135.6,171
		c0.3,1.5,0.4,3.1,0.4,4.7c0,13.7-11.1,24.9-24.8,25C451.9,477,451.9,477,451.8,477z M258.3,297.1c16,42.6,48.9,76.2,98.2,100.4
		c22,10.8,43.6,17.8,61,22.3C387.8,346.4,306.7,311.7,258.3,297.1z"/> </g> <g> <path class="st0" d="M452.6,477c-6.8,0-13.3-2.8-18-7.7c-5.3-5.6-7.8-13.3-6.7-20.9c10.5-72.7,57.5-132.2,135.8-172.1
		c57-29,110.6-37.5,112.9-37.9c7.8-1.2,15.7,1.4,21.4,6.9c5.6,5.6,8.3,13.4,7.2,21.3C694.2,344,647,405,568.5,443.1
		c-57.3,27.8-111.1,33.5-113.4,33.8C454.3,477,453.4,477,452.6,477z M646.1,297.1c-17.4,5.2-39,13.1-60.9,24.3
		c-49.4,25.4-82.4,58.4-98.4,98.4c17.4-4.5,39.1-11.5,61.1-22.3C597.2,373.3,630.1,339.6,646.1,297.1z"/> </g> <g> <path class="st0" d="M456.5,426.7c-1.1,0-2.2-0.1-3.3-0.2c-6.9-0.9-13.1-4.7-17.1-10.4c-41.5-58.7-52.6-128-32.2-200.5
		c15.1-53.5,42.2-90,43.4-91.6c5-6.6,12.8-10.3,21.1-10c8.2,0.4,15.8,4.8,20.1,11.8c25.7,41.3,41.2,82.3,45.9,121.8
		c3.9,32.5,0.6,64.1-9.8,93.7c-17.8,50.7-50.7,78.4-52.1,79.6C467.9,424.7,462.3,426.7,456.5,426.7z M466.5,190.4
		c-5.3,11.4-10.7,25.1-14.9,40.3c-12.7,46.2-9.7,89.2,8.7,128.2c6.3-9.5,12.9-21.6,17.8-36.3C491.6,282,487.7,237.7,466.5,190.4z"/> </g> <g> <path class="st0" d="M451.8,955.4c-13.8,0-25-11.2-25-25V401.7c0-13.8,11.2-25,25-25s25,11.2,25,25v528.7
		C476.8,944.2,465.6,955.4,451.8,955.4z"/> </g> 
    </symbol>
    <symbol id="message" viewBox="0 0 1000 1000">
        <g> <path d="M518.6,940.6c-37.4,0-74.1-12.8-103.2-36c-27.1-21.6-45.9-50.7-51.4-79.9c-2.6-13.6,6.3-26.7,19.9-29.2
		c13.6-2.6,26.7,6.3,29.2,19.9c6,31.5,46,75.2,105.5,75.2s99.5-43.7,105.5-75.2c2.6-13.6,15.7-22.5,29.2-19.9
		c13.6,2.6,22.5,15.7,19.9,29.2c-5.6,29.2-24.3,58.3-51.4,79.9C592.7,927.9,556,940.6,518.6,940.6z"/> </g> <g> <path d="M779.3,761H220.7c-16.2,0-35.8-8-51.3-21c-19.1-16-29.6-37.3-29.6-59.9c0-50.1,47.1-80.9,80.9-80.9c1.2,0,4.4-3.5,7.3-11
		c3.4-8.9,4.7-18.3,5-21.1V400.9c0-56.2,18.7-110.1,54.1-155.9c29.6-38.3,69.4-68.1,113.5-85.3v-0.9c0-54.8,44.6-99.5,99.5-99.5
		c54.8,0,99.4,44.6,99.5,99.4c50.5,16.6,92.1,46.5,121,87.1c30.4,42.6,46.5,96.3,46.5,155.1v166.5c1.5,16.2,8.8,31.9,12.2,31.9
		c18.6,0,37.6,6.7,52.1,18.3c18.6,14.9,28.8,37.1,28.8,62.6C860.1,735.3,811.9,761,779.3,761z M500,109.4
		c-27.3,0-49.5,22.2-49.5,49.5V196l-17.7,5.4C346,227.9,283,311.8,283,400.9v168.5l-0.1,1c-0.1,1.8-1.5,17.9-7.8,34.7
		c-14.3,38.5-40.2,44.2-54.4,44.2c-9.4,0-30.9,11.7-30.9,30.9c0,19.3,24.5,30.9,30.9,30.9h558.5c4.1,0,12.7-2,19.9-7.6
		c7.4-5.7,11-13.3,11-23.3c0-10.4-3.3-18.1-10.1-23.6c-6.7-5.4-15.1-7.3-20.8-7.3c-14.2,0-40.1-5.7-54.4-44.2
		c-6.2-16.8-7.6-32.9-7.7-34.7l-0.1-0.9V400.9c0-101-55.6-175.5-148.7-199.2l-18.8-4.8v-38C549.5,131.6,527.3,109.4,500,109.4z"/> </g> 
    </symbol>
    <symbol id="message2" viewBox="0 0 1000 1000">
        <g> <path class="st0" d="M518.7,638.6c-3.3,0-6.7-0.7-9.8-2L109.5,466.2c-9.1-3.9-15-12.7-15.2-22.5c-0.2-9.9,5.5-18.9,14.4-23.1
		l395.9-185.8c6.7-3.1,14.4-3.2,21.1-0.1l389.6,179.8c8.9,4.1,14.5,13,14.5,22.7c0,9.8-5.7,18.6-14.6,22.7L529.1,636.4
		C525.8,637.9,522.2,638.6,518.7,638.6z M180.4,442.1l337.9,144.2l326.6-149.2L515.3,285L180.4,442.1z"/> </g> <g> <path class="st0" d="M178,669.4c-13.8,0-25-11.2-25-25V470.6c0-13.8,11.2-25,25-25s25,11.2,25,25v173.8
		C203,658.2,191.8,669.4,178,669.4z"/> </g> <g> <path class="st0" d="M178,771c-13.8,0-25-11.2-25-25v-33.4c0-13.8,11.2-25,25-25s25,11.2,25,25V746C203,759.8,191.8,771,178,771z"/> </g> <g> <path class="st0" d="M517,895.4c-4.4,0-8.9,0-13.5-0.1c-226.9-4.7-259.9-127.4-261.2-132.6c-0.5-2-0.7-4-0.7-6V517.4
		c0-13.8,11.2-25,25-25s25,11.2,25,25v235.3c2.5,6.4,10.9,24.2,34.1,42.7c27.2,21.7,80.4,48,178.9,50
		c106.9,2.2,167.7-24.8,199.8-47.8c26.9-19.3,38.5-38.5,42.3-46.2v-234c0-13.8,11.2-25,25-25s25,11.2,25,25v239.3
		c0,2.8-0.5,5.7-1.4,8.3C793.3,770.4,746.4,895.4,517,895.4z"/> </g> <g> <path class="st0" d="M517.9,768.4c-181.6,0-262.8-85.9-266.4-89.8l36.8-33.8l-0.1-0.1c0.2,0.2,20.6,21.5,63.5,41
		c39.7,18,107.5,38.1,204.7,31.4c13.8-1,25.7,9.4,26.7,23.2c1,13.8-9.4,25.7-23.2,26.7C545.3,767.9,531.3,768.4,517.9,768.4z"/> </g> <g> <path class="st0" d="M644.3,756.2c-12.2,0-22.9-8.9-24.7-21.4c-2-13.7,7.4-26.4,21.1-28.4c44.4-6.6,95.3-44.4,111.1-58.4
		c10.3-9.2,26.1-8.2,35.3,2.1c9.2,10.3,8.2,26.1-2.1,35.3c-2.8,2.5-68.9,60.4-137,70.5C646.8,756.1,645.6,756.2,644.3,756.2z"/> </g> 
    </symbol>
    <symbol id="notice" viewBox="0 0 1000 1000">
        <g> <g> <path class="st0" d="M701.7,383.5c-13.8,0-25-11.2-25-25c0-111.6-90.8-202.3-202.3-202.3S272,246.9,272,358.5
			c0,13.8-11.2,25-25,25c-13.8,0-25-11.2-25-25c0-67.2,26.3-130.5,74.1-178.3c47.8-47.8,111.1-74.1,178.2-74.1
			c67.2,0,130.5,26.3,178.3,74.1c47.8,47.8,74.1,111.1,74.1,178.2C726.7,372.3,715.5,383.5,701.7,383.5z"/> </g> <g> <path class="st0" d="M776.3,779.3H182c-20.7,0-39.2-10.7-49.5-28.6c-10.3-17.9-10.2-39.3,0.3-57.2l50.9-86.8
			c25.2-42.9,38.5-91.8,38.5-141.5V363.4c0-13.8,11.2-25,25-25s25,11.2,25,25v101.8c0,58.5-15.7,116.2-45.3,166.8l-50.9,86.8
			c-1.8,3.1-0.8,5.8,0,7.1c0.9,1.6,2.7,3.5,6.1,3.5h594.3c2.5,0,3.8-1.4,4.5-2.6c1-1.7,1-3.4,0-5.1l-48.2-82.9
			c-32.3-55.7-50.4-119-52.3-183l-2.7-72.2c-0.6-2.1-0.9-4.4-0.9-6.7v-18.1c0-13.6,10.9-24.7,24.5-25c13.7-0.2,24.9,10.4,25.5,24.1
			l3.6,96.2c0,0.1,0,0.1,0,0.2c1.6,55.8,17.4,110.9,45.6,159.5l48.2,82.9c10,17.2,10.1,37.9,0.2,55.2
			C814.2,769,796.3,779.3,776.3,779.3z"/> </g> </g> <g> <path class="st0" d="M476.7,916.3c-76.7,0-139.1-62.4-139.1-139.1c0-13.8,11.2-25,25-25s25,11.2,25,25c0,49.1,40,89.1,89.1,89.1
		s89.1-40,89.1-89.1c0-13.8,11.2-25,25-25s25,11.2,25,25C615.8,853.9,553.4,916.3,476.7,916.3z"/> </g> 
    </symbol>
    <symbol id="other" viewBox="0 0 1000 1000">
        <g> <g> <path class="st0" d="M528,206.5c-9.4-4.5-20.6-3.3-28.8,3.2c-0.4,0.3-40.2,32-84.3,64.5c-76.6,56.4-98.9,65.8-103.4,67.3H191.7
			c-22.5,0-42.1,9.3-55.5,26.2c-11.5,14.6-17.6,33.6-17.6,55.1v239.4c0,44.8,36.4,81.2,81.2,81.2h33.6c15,0,27.2-12.2,27.2-27.2
			c0-15-12.2-27.2-27.2-27.2h-33.6c-14.7,0-26.8-12-26.8-26.9V422.7c0-10.1,2.4-26.9,18.6-26.9h121.5c14,0,35.4-5.8,128.7-74.1
			c16.6-12.2,32.9-24.4,47-35.2v507.7c-11.3-9.6-24-20.1-36.9-30.6c-85.4-69.1-106.4-74.9-120.8-74.9l0,0c-15,0-27.2,12.2-27.2,27.2
			c0,14.3,10.9,26,24.9,27.1c4,1.4,24.6,10.5,93.8,66.9c39.6,32.2,75,63.7,75.4,64.1c5.1,4.5,11.5,6.8,18.1,6.8
			c3.8,0,7.6-0.8,11.1-2.4c9.8-4.4,16-14.1,16-24.8V231.1C543.4,220.6,537.3,211,528,206.5L528,206.5z M738.6,252.9
			c-13.3-7-29.8-2.1-36.8,11.2c-7,13.3-2.1,29.8,11.2,36.8c89.6,47.6,145.2,139.8,145.2,240.7S802.6,734.8,713,782.4
			c-13.3,7-18.4,23.5-11.2,36.8c4.9,9.2,14.4,14.5,24,14.5c4.3,0,8.7-1.1,12.8-3.2C846,773.3,912.7,662.7,912.7,541.7
			C912.7,420.6,846,310,738.6,252.9L738.6,252.9z M742,643c18.7-30.3,28.7-65.3,28.7-101.3c0-35.9-10-71-28.7-101.3
			c-18.4-29.5-44.2-53.3-74.9-68.8c-13.4-6.8-29.8-1.5-36.6,12c-6.8,13.4-1.5,29.8,12,36.6c45.5,23,73.8,69.6,73.8,121.6
			s-28.2,98.5-73.7,121.6c-13.4,6.8-18.7,23.1-12,36.6c4.8,9.5,14.4,14.9,24.3,14.9c4.1,0,8.3-1,12.3-2.9
			C697.9,696.3,723.8,672.5,742,643L742,643z"/> </g> </g> 
    </symbol>
    <symbol id="query" viewBox="0 0 1000 1000">
        <g> <path class="st0" d="M481.1,935.8c-56.1,0-110.6-11-161.9-32.7c-49.5-21-94-51-132.2-89.2c-38.2-38.2-68.2-82.7-89.2-132.2
		C76,630.5,65,576,65,519.8s11-110.6,32.7-161.9c21-49.5,51-94,89.2-132.2c38.2-38.2,82.7-68.2,132.2-89.2
		c51.3-21.7,105.8-32.7,161.9-32.7c13.8,0,25,11.2,25,25s-11.2,25-25,25c-201.8,0-366,164.2-366,366s164.2,366,366,366
		s366-164.2,366-366c0-98-38.2-190.1-107.7-259.2c-9.8-9.7-9.8-25.6-0.1-35.4c9.7-9.8,25.6-9.8,35.4-0.1
		c38.4,38.2,68.5,82.8,89.6,132.4c21.8,51.4,32.8,106,32.8,162.3c0,56.1-11,110.6-32.7,161.9c-21,49.5-51,94-89.2,132.2
		c-38.2,38.2-82.7,68.2-132.2,89.2C591.7,924.8,537.2,935.8,481.1,935.8z"/> </g> <g> <path class="st0" d="M481.6,774c-66.1,0-128.2-25.7-175-72.5s-72.5-108.9-72.5-175s25.7-128.2,72.5-175s108.9-72.5,175-72.5
		c13.8,0,25,11.2,25,25s-11.2,25-25,25c-108.9,0-197.5,88.6-197.5,197.5S372.8,724,481.6,724s197.5-88.6,197.5-197.5
		c0-53-20.6-102.6-58.1-139.9c-9.8-9.7-9.8-25.6-0.1-35.4c9.7-9.8,25.6-9.8,35.4-0.1c46.9,46.7,72.8,109,72.8,175.3
		c0,66.1-25.7,128.2-72.5,175S547.7,774,481.6,774z"/> </g> <g> <path class="st0" d="M481.6,580.7c-33.5,0-60.8-27.3-60.8-60.8s27.3-60.8,60.8-60.8s60.8,27.3,60.8,60.8S515.2,580.7,481.6,580.7z
		 M481.6,509c-6,0-10.8,4.9-10.8,10.8s4.9,10.8,10.8,10.8s10.8-4.9,10.8-10.8S487.6,509,481.6,509z"/> </g> <g> <path class="st0" d="M481.1,509c-13.8,0-25-11.2-25-25V128.8c0-13.8,11.2-25,25-25s25,11.2,25,25V484
		C506.1,497.8,494.9,509,481.1,509z"/> </g> 
    </symbol>
    <symbol id="salary" viewBox="0 0 1000 1000">
        <g> <path class="st0" d="M162.3,745.7c-13.8,0-25-11.2-25-25V463.5c0-13.8,11.2-25,25-25s25,11.2,25,25v257.2
		C187.3,734.5,176.1,745.7,162.3,745.7z"/> </g> <g> <path class="st0" d="M517.8,745.7c-13.8,0-25-11.2-25-25V463.5c0-13.8,11.2-25,25-25s25,11.2,25,25v257.2
		C542.8,734.5,531.6,745.7,517.8,745.7z"/> </g> <g> <path class="st0" d="M340.1,542.6c-50.3,0-98-7.3-134.2-20.5c-56.6-20.7-68.5-49.1-68.5-69.3s11.9-48.7,68.5-69.3
		c36.2-13.2,83.9-20.5,134.2-20.5c50.3,0,98,7.3,134.2,20.5c56.6,20.7,68.5,49.1,68.5,69.3s-11.9,48.7-68.5,69.3
		C438.1,535.3,390.4,542.6,340.1,542.6z M187.4,452.7c0.7,2.5,9.2,13.4,39.4,23.7c30.5,10.4,70.8,16.2,113.4,16.2
		s82.9-5.7,113.4-16.2c30.1-10.3,38.7-21.2,39.4-23.7c-0.7-2.5-9.2-13.4-39.4-23.7c-30.5-10.4-70.8-16.2-113.4-16.2
		c-42.6,0-82.9,5.7-113.4,16.2C196.6,439.3,188.1,450.3,187.4,452.7z"/> </g> <g> <path class="st0" d="M340.1,636.5c-50.3,0-98-7.3-134.2-20.5c-56.6-20.6-68.5-49.1-68.5-69.3c0-13.8,11.2-25,25-25
		c13.8,0,25,11.2,25,24.9c0.5,2.3,8.9,13.4,39.3,23.8c30.5,10.4,70.8,16.2,113.4,16.2s82.9-5.7,113.4-16.2
		c30.4-10.4,38.8-21.5,39.3-23.8c0-13.8,11.2-24.9,25-24.9c13.8,0,25,11.2,25,25c0,20.2-11.9,48.7-68.5,69.3
		C438.1,629.2,390.4,636.5,340.1,636.5z"/> </g> <g> <path class="st0" d="M340.1,723c-50.3,0-98-7.3-134.2-20.5c-56.6-20.6-68.5-49.1-68.5-69.3c0-13.8,11.2-25,25-25
		c13.8,0,25,11.2,25,24.9c0.5,2.3,8.9,13.4,39.3,23.8c30.5,10.4,70.8,16.2,113.4,16.2s82.9-5.7,113.4-16.2
		c30.4-10.4,38.8-21.5,39.3-23.8c0-13.8,11.2-24.9,25-24.9c13.8,0,25,11.2,25,25c0,20.2-11.9,48.7-68.5,69.3
		C438.1,715.7,390.4,723,340.1,723z"/> </g> <g> <path class="st0" d="M340.1,818.7c-50.3,0-98-7.3-134.2-20.5c-56.6-20.6-68.5-49.1-68.5-69.3c0-13.8,11.2-25,25-25
		c13.8,0,25,11.2,25,24.9c0.5,2.3,8.9,13.4,39.3,23.8c30.5,10.4,70.8,16.2,113.4,16.2s82.9-5.7,113.4-16.2
		c30.4-10.4,38.8-21.5,39.3-23.8c0-13.8,11.2-24.9,25-24.9c13.8,0,25,11.2,25,25c0,20.2-11.9,48.7-68.5,69.3
		C438.1,811.4,390.4,818.7,340.1,818.7z"/> </g> <g> <path class="st0" d="M413,408.8c-13.8,0-25-11.2-25-25V256.3c0-13.8,11.2-25,25-25s25,11.2,25,25v127.5
		C438,397.6,426.9,408.8,413,408.8z"/> </g> <g> <path class="st0" d="M768.6,635.7c-13.8,0-25-11.2-25-25V256.3c0-13.8,11.2-25,25-25s25,11.2,25,25v354.5
		C793.6,624.6,782.4,635.7,768.6,635.7z"/> </g> <g> <path class="st0" d="M590.8,342.9c-50.3,0-98-7.3-134.2-20.5C399.9,301.7,388,273.3,388,253s11.9-48.7,68.5-69.3
		c36.2-13.2,83.9-20.5,134.2-20.5c50.3,0,98,7.3,134.2,20.5c56.6,20.7,68.5,49.1,68.5,69.3s-11.9,48.7-68.5,69.3
		C688.8,335.6,641.1,342.9,590.8,342.9z M438.1,253c0.7,2.5,9.2,13.4,39.4,23.7c30.5,10.4,70.8,16.2,113.4,16.2s82.9-5.7,113.4-16.2
		c30.1-10.3,38.7-21.2,39.4-23.7c-0.7-2.5-9.2-13.4-39.4-23.7c-30.5-10.4-70.8-16.2-113.4-16.2c-42.6,0-82.9,5.7-113.4,16.2
		C447.3,239.6,438.7,250.6,438.1,253z"/> </g> <g> <path class="st0" d="M590.9,526.6c-19.5,0-38.3-1-55.8-3.1c-13.7-1.6-23.5-14-21.9-27.7c1.6-13.7,14-23.5,27.7-21.9
		c15.7,1.8,32.5,2.8,50,2.8c42.6,0,82.9-5.7,113.4-16.2c30.4-10.4,38.8-21.5,39.3-23.8c0-13.8,11.2-24.9,25-24.9
		c13.8,0,25,11.2,25,25c0,20.2-11.9,48.7-68.5,69.3C688.9,519.3,641.2,526.6,590.9,526.6z"/> </g> <g> <path class="st0" d="M590.9,433.3c-50.3,0-98-7.3-134.2-20.5c-56.6-20.6-68.5-49.1-68.5-69.3c0-13.8,11.2-25,25-25
		c13.8,0,25,11.2,25,24.9c0.5,2.3,8.9,13.4,39.3,23.8c30.5,10.4,70.8,16.2,113.4,16.2s82.9-5.7,113.4-16.2
		c30.4-10.4,38.8-21.5,39.3-23.8c0-13.8,11.2-24.9,25-24.9c13.8,0,25,11.2,25,25c0,20.2-11.9,48.7-68.5,69.3
		C688.9,426,641.2,433.3,590.9,433.3z"/> </g> <g> <path class="st0" d="M590.9,613.1c-19.5,0-38.3-1-55.8-3.1c-13.7-1.6-23.5-14-21.9-27.7c1.6-13.7,14-23.5,27.7-21.9
		c15.7,1.8,32.5,2.8,50,2.8c42.6,0,82.9-5.7,113.4-16.2c30.4-10.4,38.8-21.5,39.3-23.8c0-13.8,11.2-24.9,25-24.9
		c13.8,0,25,11.2,25,25c0,20.2-11.9,48.7-68.5,69.3C688.9,605.8,641.2,613.1,590.9,613.1z"/> </g> <g> <path class="st0" d="M590.9,705.5c-19.5,0-38.3-1-55.8-3.1c-13.7-1.6-23.5-14-21.9-27.7c1.6-13.7,14-23.5,27.7-21.9
		c15.7,1.8,32.5,2.8,50,2.8c42.6,0,82.9-5.7,113.4-16.2c30.4-10.4,38.8-21.5,39.3-23.8c0-13.8,11.2-24.9,25-24.9
		c13.8,0,25,11.2,25,25c0,20.2-11.9,48.7-68.5,69.3C688.9,698.2,641.2,705.5,590.9,705.5z"/> </g> 
    </symbol>
    <symbol id="search" viewBox="0 0 1000 1000">
        <g> <path d="M357.3,582.1c-61.1,0-118.6-23.8-161.8-67s-67-100.7-67-161.8s23.8-118.6,67-161.8s100.7-67,161.8-67s118.6,23.8,161.8,67
		c43.2,43.2,67,100.7,67,161.8s-23.8,118.6-67,161.8C475.9,558.3,418.4,582.1,357.3,582.1z M357.3,174.4
		c-98.6,0-178.9,80.2-178.9,178.9s80.2,178.9,178.9,178.9c98.6,0,178.9-80.2,178.9-178.9S455.9,174.4,357.3,174.4z"/> </g> <g> <path d="M803.7,800.9c-6.1,0-12.3-2.2-17.1-6.8L487,512.8c-10.1-9.5-10.6-25.3-1.1-35.3c9.5-10.1,25.3-10.6,35.3-1.1l299.6,281.3
		c10.1,9.5,10.6,25.3,1.1,35.3C817,798.3,810.4,800.9,803.7,800.9z"/> </g> <g> <path class="st6" d="M740.5,737.4c0-0.7,0-1.3,0-2"/> </g> <g> <path class="st6" d="M756.5,723.4c-0.7,0-1.3,0-2,0"/> </g> 
    </symbol>
    <symbol id="selfperson" viewBox="0 0 1000 1000">
        <g> <path class="st0" d="M480.6,523.7c-96.8,0-175.5-78.7-175.5-175.5s78.7-175.5,175.5-175.5s175.5,78.7,175.5,175.5
		S577.4,523.7,480.6,523.7z M480.6,222.7c-69.2,0-125.5,56.3-125.5,125.5s56.3,125.5,125.5,125.5s125.5-56.3,125.5-125.5
		S549.8,222.7,480.6,222.7z"/> </g> <g> <path class="st0" d="M181.9,874.9c-12.5,0-23.3-9.4-24.8-22.1c-1.6-13.6-2.4-27.3-2.4-40.6c0-45.3,8.9-89.3,26.4-130.7
		c16.9-40,41.1-75.9,72-106.8c30.8-30.8,66.8-55.1,106.8-72c41.4-17.5,85.4-26.4,130.8-26.4c45.3,0,89.3,8.9,130.7,26.4
		c40,16.9,75.9,41.1,106.8,72c30.8,30.8,55.1,66.8,72,106.8c17.5,41.4,26.4,85.4,26.4,130.8c0,10.8-0.5,22-1.7,34.1
		c-1.3,13.7-13.5,23.9-27.2,22.6c-13.7-1.3-23.9-13.5-22.6-27.2c1-10.6,1.5-20.2,1.5-29.5c0-157.7-128.3-285.9-285.9-285.9
		S204.6,654.5,204.6,812.2c0,11.4,0.7,23.1,2.1,34.8c1.6,13.7-8.2,26.1-21.9,27.8C183.8,874.8,182.8,874.9,181.9,874.9z"/> </g> <g> <path class="st1" d="M308.6,765"/> </g> 
    </symbol>
    <symbol id="setting" viewBox="0 0 1000 1000">
        <g> <path d="M816.6,286.1H193.5c-13.8,0-25-11.2-25-25s11.2-25,25-25h623.1c13.8,0,25,11.2,25,25S830.5,286.1,816.6,286.1z"/> </g> <g> <path d="M816.6,528.1H193.5c-13.8,0-25-11.2-25-25s11.2-25,25-25h623.1c13.8,0,25,11.2,25,25S830.5,528.1,816.6,528.1z"/> </g> <g> <path d="M816.6,753.5H193.5c-13.8,0-25-11.2-25-25s11.2-25,25-25h623.1c13.8,0,25,11.2,25,25S830.5,753.5,816.6,753.5z"/> </g> 
    </symbol>
    <symbol id="traffic" viewBox="0 0 1000 1000">
        <g> <path class="st0" d="M515.7,764.9h-65.1c-13.8,0-25-11.2-25-25s11.2-25,25-25h65.1c13.8,0,25,11.2,25,25S529.5,764.9,515.7,764.9z"/> </g> <g> <path class="st0" d="M815.6,764.9h-20c-13.8,0-25-11.2-25-25s11.2-25,25-25h20c4.3,0,8-3.7,8-8V373c0-4.3-3.7-8-8-8h-651
		c-4.3,0-8,3.7-8,8v333.9c0,4.3,3.7,8,8,8h10.1c13.8,0,25,11.2,25,25s-11.2,25-25,25h-10.1c-32,0-58-26-58-58V373c0-32,26-58,58-58
		h651c32,0,58,26,58,58v333.9C873.6,738.9,847.6,764.9,815.6,764.9z"/> </g> <g> <path class="st0" d="M769.9,557.5H641.1c-20.2,0-36.7-16.5-36.7-36.7v-88.2c0-20.2,16.5-36.7,36.7-36.7h128.8
		c20.2,0,36.7,16.5,36.7,36.7v88.2C806.6,541,790.1,557.5,769.9,557.5z M654.4,507.5h102.2v-61.6H654.4V507.5z"/> </g> <g> <path class="st0" d="M552.1,557.5H423.3c-20.2,0-36.7-16.5-36.7-36.7v-88.2c0-20.2,16.5-36.7,36.7-36.7h128.8
		c20.2,0,36.7,16.5,36.7,36.7v88.2C588.8,541,572.4,557.5,552.1,557.5z M436.6,507.5h102.2v-61.6H436.6V507.5z"/> </g> <g> <path class="st0" d="M334.6,557.5H205.7c-20.2,0-36.7-16.5-36.7-36.7v-88.2c0-20.2,16.5-36.7,36.7-36.7h128.8
		c20.2,0,36.7,16.5,36.7,36.7v88.2C371.3,541,354.8,557.5,334.6,557.5z M219,507.5h102.2v-61.6H219V507.5z"/> </g> <g> <path class="st0" d="M312.6,840.5c-54.8,0-99.4-44.6-99.4-99.4s44.6-99.4,99.4-99.4s99.4,44.6,99.4,99.4S367.4,840.5,312.6,840.5z
		 M312.6,691.6c-27.2,0-49.4,22.2-49.4,49.4s22.2,49.4,49.4,49.4s49.4-22.2,49.4-49.4S339.8,691.6,312.6,691.6z"/> </g> <g> <path class="st0" d="M657,840.5c-54.8,0-99.4-44.6-99.4-99.4s44.6-99.4,99.4-99.4s99.4,44.6,99.4,99.4S711.8,840.5,657,840.5z
		 M657,691.6c-27.2,0-49.4,22.2-49.4,49.4s22.2,49.4,49.4,49.4s49.4-22.2,49.4-49.4S684.3,691.6,657,691.6z"/> </g> 
    </symbol>
    <symbol id="turnover" viewBox="0 0 1000 1000">
        <g> <path class="st0" d="M507.6,909.3c-55.3,0-108.9-10.8-159.3-32.2c-48.7-20.6-92.5-50.1-130.1-87.7c-37.6-37.6-67.1-81.4-87.7-130.1
		C109,608.9,98.2,555.3,98.2,500s10.8-108.9,32.2-159.3c20.6-48.7,50.1-92.5,87.7-130.1c37.6-37.6,81.4-67.1,130.1-87.7
		c50.5-21.4,104.1-32.2,159.3-32.2s108.9,10.8,159.3,32.2c48.7,20.6,92.5,50.1,130.1,87.7c37.6,37.6,67.1,81.4,87.7,130.1
		c21.3,50.5,32.2,104.1,32.2,159.3c0,88.5-27.8,172.7-80.3,243.5c-5.1,6.9-14,9.8-22.2,7.1c-8.2-2.6-13.7-10.2-13.9-18.7l-0.8-55.4
		c-0.2-11,8.7-20.1,19.7-20.3c0.1,0,0.2,0,0.3,0c7.6,0,14.2,4.2,17.6,10.4c26-51.3,39.6-107.9,39.6-166.7
		c0-203.7-165.7-369.3-369.3-369.3c-203.7,0-369.3,165.7-369.3,369.3c0,203.7,165.7,369.3,369.3,369.3c74,0,145.4-21.8,206.5-63.1
		c9.2-6.2,21.6-3.8,27.8,5.4c6.2,9.2,3.8,21.6-5.4,27.8C668.7,885.2,589.6,909.3,507.6,909.3z"/> </g> <g> <path class="st0" d="M608,734.5H362.7c-2,0-4-0.3-6-0.9c-2.6-0.8-26.3-8.8-46.4-34.9c-17.8-23.2-36.3-65.9-23.3-138
		c5.6-31,19.9-65.5,39.2-94.5c18.8-28.3,41.9-51.1,67.6-66.9c-4.1-6.3-8.5-13.7-12.3-21.7c-23.1-47.6-6.5-72,5.6-82.3
		c13.4-11.5,27.6-17.3,42.3-17.3c9.9,0,18.3,2.7,25,6c11.3-9.4,27.8-18,48.2-18c17,0,34.5,5.8,52,17.3c4.3-0.5,9.7-0.9,15.8-0.9
		c25.1,0,44.6,7.4,56.4,21.4c11,13,14.7,30.3,11.1,51.3c-0.3,2-1,4-2,5.9c-1.6,3-12,22.9-25.1,40.5c12.5,8.4,29.1,20.9,46.1,37.8
		c45.4,45.1,72.5,100.4,78.5,160.1c0.9,6.7,6.4,56.9-25.7,94.8c-22.3,26.3-56.4,40-101.4,40.5C608.2,734.5,608.1,734.5,608,734.5z
		 M366.5,694.5h241.4c32.8-0.4,56.8-9.3,71.2-26.4c21.7-25.6,16.7-63.1,16.6-63.5c-0.1-0.4-0.1-0.7-0.1-1.1
		c-12-122.3-123.4-178.9-124.5-179.5c-6-3-10.1-8.7-10.9-15.4c-0.8-6.6,1.7-13.2,6.7-17.6c10.2-8.9,24.3-31.6,32-45.7
		c0.7-5.6,0.5-12.1-2.7-15.8c-3.9-4.6-13.3-7.2-25.8-7.2c-9.2,0-16.6,1.5-16.7,1.5c-5.6,1.1-11.4-0.1-15.9-3.5
		c-12.8-9.5-24.7-14.3-35.2-14.3c-18.4,0-28.7,15.2-28.8,15.3c-3.5,5.4-9.1,9.1-15.6,9.4c-6.4,0.3-12.3-2.1-16.3-7.1
		c-0.8-0.8-5.9-5.7-12.5-5.7c-4.9,0-10.3,2.6-16.3,7.6c-10.9,9.4,7.6,45.8,25.8,67.9c4,4.8,5.5,11.2,4,17.3
		c-1.4,6.1-5.6,11.2-11.4,13.7c-63.2,28-97.5,101.1-105.1,143.3C309.4,662.2,355.1,689.3,366.5,694.5z"/> </g> <g> <path class="st0" d="M497.4,536.2l-62.3-77.9c-6.9-8.6-5.5-21.2,3.1-28.1c8.6-6.9,21.2-5.5,28.1,3.1l34.3,42.9l44.1-44.5
		c7.8-7.8,20.4-7.9,28.3-0.1c7.8,7.8,7.9,20.4,0.1,28.3L497.4,536.2z"/> </g> <g> <path class="st0" d="M563.6,560.8H436.7c-11,0-20-9-20-20s9-20,20-20h126.9c11,0,20,9,20,20S574.7,560.8,563.6,560.8z"/> </g> <g> <path class="st0" d="M563.6,607.5H436.7c-11,0-20-9-20-20s9-20,20-20h126.9c11,0,20,9,20,20S574.7,607.5,563.6,607.5z"/> </g> <g> <path class="st0" d="M500.2,652.7c-10.9,0-19.8-8.7-20-19.7c0-0.3-0.5-34.2-0.8-67.9c-0.2-19.8-0.2-35.8-0.1-47.3
		c0.1-7.1,0.2-12.5,0.3-16.4c0.3-7.2,0.5-14,6.5-19.9c7.8-7.8,20.5-7.8,28.3,0c5.1,5,6.8,12.1,5.4,18.6c-0.8,11.1-0.4,75,0.5,132.3
		c0.2,11-8.6,20.1-19.7,20.3C500.4,652.7,500.3,652.7,500.2,652.7z"/> </g> 
    </symbol>
    <symbol id="vacancy" viewBox="0 0 1000 1000">
        <g> <path class="st0" d="M128.4,403.6c-10.5,0-20.2-6.6-23.7-17.1c-4.4-13.1,2.7-27.3,15.8-31.6c4.3-1.4,4.3-1.4,40.6-1.5
		c19.5-0.1,48-0.1,84.7-0.1c61.9,0,147.9,0,255.8,0c183.7,0.1,369.5,0.3,371.3,0.3c13.8,0,25,11.2,25,25c0,13.8-11.2,25-25,25
		c0,0,0,0,0,0c-247.8-0.3-719.2-0.7-742.6-0.1C129.6,403.6,129,403.6,128.4,403.6z"/> </g> <g> <path class="st0" d="M793.1,430.5l-304.3-187c-2.3-1-4.5-2.3-6.4-3.9l-45.1-27.7c-15.2-9.3-35.2-6-46.6,7.8L247.4,394.1
		c-8.8,10.7-24.5,12.2-35.2,3.4c-10.7-8.8-12.2-24.5-3.4-35.2L352.2,188c13.2-16,31.7-26.8,52.2-30.2c20.5-3.4,41.5,0.7,59.2,11.5
		l40.7,25l144.4-22.1c36.9-5.7,72.2,16,83.8,51.5l0.2,0.7L793.1,430.5z M570.2,234.8l138.4,85L684.9,239
		c-4.1-12-16.1-19.3-28.6-17.3L570.2,234.8z"/> </g> <g> <path class="st0" d="M544.5,511.1H291.7c-13.8,0-25-11.2-25-25s11.2-25,25-25h252.8c13.8,0,25,11.2,25,25S558.3,511.1,544.5,511.1z
		"/> </g> <g> <path class="st0" d="M286.6,641.8c-8.1,0-16-3.9-20.8-11.1c-7.7-11.5-4.6-27,6.9-34.7c7.1-4.7,12-4.8,35.8-4.9
		c11.3-0.1,26.9,0,46.3,0.1c32.9,0.2,65.9,0.6,66.3,0.6c13.8,0.2,24.9,11.5,24.7,25.3c-0.2,13.7-11.3,24.7-25,24.7
		c-0.1,0-0.2,0-0.3,0c-55.9-0.7-118.2-1.1-129.3-0.4C289.6,641.7,288.1,641.8,286.6,641.8z"/> </g> <g> <path class="st0" d="M462,876.5H297.8c-56.5,0-102.4-45.9-102.4-102.4V387.2c0-13.8,11.2-25,25-25c13.8,0,25,11.2,25,25v386.9
		c0,28.9,23.5,52.4,52.4,52.4H462c13.8,0,25,11.2,25,25C487,865.3,475.8,876.5,462,876.5z"/> </g> <g> <path class="st0" d="M688.1,876.5h-47.3c-13.8,0-25-11.2-25-25c0-13.8,11.2-25,25-25h47.3c28.9,0,52.4-23.5,52.4-52.4V387.2
		c0-13.8,11.2-25,25-25c13.8,0,25,11.2,25,25v386.9C790.5,830.6,744.5,876.5,688.1,876.5z"/> </g> 
    </symbol>
    <symbol id="welfare" viewBox="0 0 1000 1000">
        <path class="st1" d="M811.2,545.6H184.8c-4.5,0-8.2-3.7-8.2-8.2V390.6c0-4.5,3.7-8.2,8.2-8.2h626.5c4.5,0,8.2,3.7,8.2,8.2v146.8
	C819.3,541.9,815.7,545.6,811.2,545.6z"/> <path class="st1" d="M775.3,865.8H218.2c-4,0-7.3-3.2-7.3-7.3V546.7h571.7v311.7C782.6,862.5,779.3,865.8,775.3,865.8z"/> <path class="st1" d="M277.7,382.4c0,0-61.9-73.6-10.4-103.7c51.6-30.1,172.9,17.2,229.4,103.7v483.4"/> <path class="st1" d="M724.3,382.4c0,0,50.4-84,0-109.2c-55.2-27.6-146.6,15.3-227.5,109.2"/> 
    </symbol>
    <symbol id="add" viewBox="0 0 1000 1000">
        <g> <path class="st2" d="M501.7,934c-57.3,0-112.9-11.2-165.3-33.4c-50.6-21.4-96-52-135-91c-39-39-69.6-84.4-91-135
		c-22.2-52.4-33.4-108-33.4-165.3c0-57.3,11.2-112.9,33.4-165.3c21.4-50.6,52-96,91-135s84.4-69.6,135-91
		c52.4-22.2,108-33.4,165.3-33.4S614.7,95.9,667,118.1c50.6,21.4,96,52,135,91c39,39,69.6,84.4,91,135
		c22.2,52.4,33.4,108,33.4,165.3c0,57.3-11.2,112.9-33.4,165.3c-21.4,50.6-52,96-91,135c-39,39-84.4,69.6-135,91
		C614.7,922.8,559.1,934,501.7,934z M501.7,134.7c-206.6,0-374.7,168.1-374.7,374.7S295.2,884,501.7,884s374.7-168.1,374.7-374.7
		S708.3,134.7,501.7,134.7z"/> </g> <g> <path class="st2" d="M491.9,775.2c-13.8,0-25-11.2-25-25V281.9c0-13.8,11.2-25,25-25s25,11.2,25,25v468.3
		C516.9,764,505.7,775.2,491.9,775.2z"/> </g> <g> <path class="st2" d="M719.6,541H251.3c-13.8,0-25-11.2-25-25c0-13.8,11.2-25,25-25h468.3c13.8,0,25,11.2,25,25
		C744.6,529.9,733.4,541,719.6,541z"/> </g> 
    </symbol>
    <symbol id="audit" viewBox="0 0 1000 1000">
        <g> <g> <path class="st1" d="M418.4,735H265.6c-11.5,0-21-9.4-21-21V210.4c0-11.5,9.4-21,21-21h398.7c11.5,0,21,9.4,21,21v178.4
			c0,11.5,9.4,21,21,21c11.5,0,21-9.4,21-21V210.4c0-34.6-28.3-62.9-62.9-62.9H265.6c-34.6,0-62.9,28.3-62.9,62.9V714
			c0,34.6,28.3,62.9,62.9,62.9h152.8c11.5,0,21-9.4,21-21C439.4,744.5,429.9,735,418.4,735L418.4,735z"/> </g> <g> <path class="st1" d="M616.7,262.9H301.9c-11.5,0-21,9.4-21,21c0,11.5,9.4,21,21,21h314.7c11.5,0,21-9.4,21-21
			C637.6,272.3,628.2,262.9,616.7,262.9L616.7,262.9z M616.7,367.8H301.9c-11.5,0-21,9.4-21,21c0,11.5,9.4,21,21,21h314.7
			c11.5,0,21-9.4,21-21C637.6,377.3,628.2,367.8,616.7,367.8L616.7,367.8z M494.3,472.7H301.9c-11.5,0-21,9.4-21,21s9.4,21,21,21
			h192.3c11.5,0,21-9.4,21-21S505.8,472.7,494.3,472.7L494.3,472.7z M749.9,796.2H545.7c-10.5,0-19.2,8.7-19.2,19.2
			c0,10.5,8.7,19.2,19.2,19.2h204.2c10.5,0,18.9-8.4,19.2-19.6C769.1,804.6,760.4,796.2,749.9,796.2L749.9,796.2z M744.7,645.5
			h-40.2c-5.2-12.2,1.4-35.3,18.2-62.6l0.3-0.7v-0.4c0.4-0.3,0.7-1,0.7-1c7.3-14,14.7-31.5,14.7-54.2c0-50.7-39.9-90.9-90.9-91.3
			h-0.7c-51.1,0.3-90.6,40.6-90.6,91.3c0,22.7,7.3,39.9,14.7,53.9c0.4,1,0.7,1.7,1,2.1l0.4,0.4c16.8,27.3,23.4,50,18.2,62.6h-40.2
			c-22.7,0-40.9,18.9-40.9,42.3v67.5c0,9.4,7.7,17.1,17.1,17.1h242.3c9.4,0,16.8-7.7,16.8-16.8v-67.8
			C785.6,664.4,767.4,645.5,744.7,645.5L744.7,645.5z M747.8,733.6H547.1v-45.8c0-2.1,1.4-3.5,3.1-3.5h57l2.4-2.1
			c29.4-24.1,27.6-66.4-4.9-119.3c-6.6-12.9-10.5-23.1-10.5-36.4c0-29.7,23.1-52.5,53.2-52.8c30.4,0.3,53.2,23.1,53.2,52.8
			c0,13.6-3.8,23.8-10.5,36.4c-32.5,52.8-33.9,95.1-4.9,119.3l2.4,2.1h56.7c1.7,0,3.1,1.4,3.1,3.5v45.8H747.8L747.8,733.6z
			 M437.3,577.6H301.9c-11.5,0-21,9.4-21,21c0,11.5,9.4,21,21,21h135.3c11.5,0,21-9.4,21-21C458.2,587.1,448.8,577.6,437.3,577.6
			L437.3,577.6z"/> </g> </g> 
    </symbol>
    <symbol id="close" viewBox="0 0 1000 1000">
       <g> <path d="M852.3,893.2c-6.4,0-12.8-2.4-17.7-7.3L88,139.2c-9.8-9.8-9.8-25.6,0-35.4c9.8-9.8,25.6-9.8,35.4,0L870,850.5
		c9.8,9.8,9.8,25.6,0,35.4C865.1,890.8,858.7,893.2,852.3,893.2z"/> </g> <g> <path d="M95.4,903.4c-6.4,0-12.8-2.4-17.7-7.3c-9.8-9.8-9.8-25.6,0-35.4l746.7-746.7c9.8-9.8,25.6-9.8,35.4,0
		c9.8,9.8,9.8,25.6,0,35.4L113.1,896.1C108.2,901,101.8,903.4,95.4,903.4z"/> </g> 
    </symbol>
    <symbol id="complete" viewBox="0 0 1000 1000">
        <g> <path d="M764.8,816.4h-522c-34.7,0-63-28.2-63-63v-522c0-34.7,28.2-63,63-63h522c34.7,0,63,28.2,63,63v522
		C827.8,788.2,799.6,816.4,764.8,816.4z M242.8,218.4c-7,0-13,5.9-13,13v522c0,7,5.9,13,13,13h522c7,0,13-5.9,13-13v-522
		c0-7-5.9-13-13-13H242.8z"/> </g> <g> <path d="M802.8,380.9h-598c-13.8,0-25-11.2-25-25s11.2-25,25-25h598c13.8,0,25,11.2,25,25S816.6,380.9,802.8,380.9z"/> </g> <g> <path d="M455.8,715.2c-6.6,0-13-2.6-17.7-7.3L308.4,578.1c-9.8-9.8-9.8-25.6,0-35.4c9.8-9.8,25.6-9.8,35.4,0l112,112L657,453.7
		c9.8-9.8,25.6-9.8,35.4,0c9.8,9.8,9.8,25.6,0,35.4L473.5,707.8C468.8,712.5,462.5,715.2,455.8,715.2z"/> </g> 
    </symbol>
    <symbol id="delete" viewBox="0 0 1000 1000">
        <g> <path d="M839.9,309.4H148c-13.8,0-25-11.2-25-25s11.2-25,25-25h691.8c13.8,0,25,11.2,25,25S853.7,309.4,839.9,309.4z"/> </g> <g> <path d="M703.6,309.4H280v-85.5c0-51.6,41.9-93.5,93.5-93.5h236.6c51.6,0,93.5,41.9,93.5,93.5V309.4z M330,259.4h323.6v-35.5
		c0-24-19.5-43.5-43.5-43.5H373.5c-24,0-43.5,19.5-43.5,43.5V259.4z"/> </g> <g> <path d="M680,869.6H315.4c-48,0-87-39-87-87V380.4c0-13.8,11.2-25,25-25c13.8,0,25,11.2,25,25v402.2c0,20.4,16.6,37,37,37H680
		c20.4,0,37-16.6,37-37V380.4c0-13.8,11.2-25,25-25c13.8,0,25,11.2,25,25v402.2C767.1,830.6,728,869.6,680,869.6z"/> </g> <g> <path d="M413.4,718.9c-13.8,0-25-11.2-25-25V380.4c0-13.8,11.2-25,25-25s25,11.2,25,25v313.4C438.4,707.7,427.2,718.9,413.4,718.9z
		"/> </g> <g> <path d="M572,718.9c-13.8,0-25-11.2-25-25V380.4c0-13.8,11.2-25,25-25s25,11.2,25,25v313.4C597,707.7,585.8,718.9,572,718.9z"/> </g> 
    </symbol>
    <symbol id="dui" viewBox="0 0 1000 1000">
        <g> <path class="st0" d="M394.1,770.8c-6.4,0-12.8-2.4-17.7-7.3L148.3,535.4c-9.8-9.8-9.8-25.6,0-35.4c9.8-9.8,25.6-9.8,35.4,0
		l210.7,210.7l441-427.2c9.9-9.6,25.7-9.4,35.4,0.6c9.6,9.9,9.4,25.7-0.6,35.4L411.5,763.8C406.6,768.5,400.3,770.8,394.1,770.8z"/> </g> 
    </symbol>
    <symbol id="edit" viewBox="0 0 1000 1000">
        <g> <path d="M699.3,842H277.4c-54.6,0-99-44.4-99-99V310.1c0-54.6,44.4-99,99-99h228.8c13.8,0,25,11.2,25,25c0,13.8-11.2,25-25,25
		H277.4c-27,0-49,22-49,49V743c0,27,22,49,49,49h421.9c27,0,49-22,49-49V475.3c0-13.8,11.2-25,25-25s25,11.2,25,25V743
		C798.3,797.5,753.9,842,699.3,842z"/> </g> <g> <path d="M465,695.2c-6.6,0-12.9-2.6-17.6-7.3L319.1,560.6c-9.7-9.7-9.9-25.4-0.3-35.2l347.9-357c13.5-13.8,31.5-21.4,50.8-21.4
		c19,0,36.8,7.4,50.2,20.8l63.8,63.8c27.4,27.4,27.6,72.2,0.5,99.9L482.9,687.7c-4.7,4.8-11,7.5-17.7,7.5
		C465.1,695.2,465.1,695.2,465,695.2z M371.9,542.5l92.9,92.2l331.6-338.3c8-8.2,7.9-21.4-0.1-29.5l-63.8-63.8
		c-4-4-9.2-6.1-14.8-6.1c-5.7,0-11,2.3-15,6.3L371.9,542.5z"/> </g> <g> <path d="M289.9,736.8c-6.7,0-13.3-2.7-18.1-7.7c-6.1-6.4-8.4-15.5-6-24l46.8-169c3.7-13.3,17.5-21.1,30.8-17.4
		c13.3,3.7,21.1,17.5,17.4,30.8l-35.5,128.2c51.6-12.3,132.8-31.6,134-31.9c13.4-3.2,26.9,5.1,30.1,18.5
		c3.2,13.4-5.1,26.9-18.5,30.1c-6.6,1.6-162.3,38.6-175.3,41.6C293.6,736.6,291.7,736.8,289.9,736.8z"/> </g> <g> <path d="M772.8,379.7c-6.3,0-12.6-2.4-17.5-7.2L630.3,249.8c-9.9-9.7-10-25.5-0.3-35.4c9.7-9.9,25.5-10,35.4-0.3l125.1,122.8
		c9.9,9.7,10,25.5,0.3,35.4C785.8,377.2,779.3,379.7,772.8,379.7z"/> </g> 
    </symbol>
    <symbol id="export" viewBox="0 0 1000 1000">
        <g> <path class="st0" d="M497.7,923.4c-56.9,0-112.1-11.1-164.1-33.1c-50.2-21.2-95.3-51.6-134-90.3s-69.1-83.8-90.3-134
		c-22-52-33.1-107.2-33.1-164.1c0-56.9,11.1-112.1,33.1-164.1c21.2-50.2,51.6-95.3,90.3-134c38.7-38.7,83.8-69.1,134-90.3
		c52-22,107.2-33.1,164.1-33.1c91.7,0,179,29,252.2,83.8c35.2,26.4,66,57.9,91.5,93.7c25.8,36.3,45.6,76.3,58.8,118.7
		c4.1,13.2-3.3,27.2-16.4,31.3c-13.2,4.1-27.2-3.3-31.3-16.4c-48.6-156.1-191.2-261-354.8-261c-204.9,0-371.5,166.7-371.5,371.5
		s166.7,371.5,371.5,371.5c166.3,0,313.5-111.8,358-271.8c3.7-13.3,17.5-21.1,30.8-17.4c13.3,3.7,21.1,17.5,17.4,30.8
		c-12.2,43.9-31.4,85.4-57.1,123.3c-25.3,37.3-56.2,70.1-91.9,97.6c-36.1,27.8-76.1,49.5-119,64.3
		C591.6,915.6,545.1,923.4,497.7,923.4z"/> </g> <g> <path class="st0" d="M646,526.9H373.9c-13.8,0-25-11.2-25-25s11.2-25,25-25H646c13.8,0,25,11.2,25,25S659.8,526.9,646,526.9z"/> </g> <g> <path class="st0" d="M530,652.2c-6.4,0-12.8-2.4-17.7-7.3c-9.8-9.8-9.8-25.6,0-35.4L620,501.8L503.9,384.6
		c-9.7-9.8-9.7-25.6,0.2-35.4c9.8-9.7,25.6-9.7,35.4,0.2l133.7,134.9c9.7,9.8,9.7,25.5-0.1,35.3L547.6,644.9
		C542.8,649.8,536.4,652.2,530,652.2z"/> </g> 
    </symbol>
    <symbol id="import" viewBox="0 0 1000 1000">
        <g> <path class="st0" d="M756.4,826.6H284.1c-41,0-74.4-33.4-74.4-74.4V536.7c0-13.8,11.2-25,25-25c13.8,0,25,11.2,25,25v215.5
		c0,13.4,10.9,24.4,24.4,24.4h472.2c13.4,0,24.4-10.9,24.4-24.4V280c0-13.4-10.9-24.4-24.4-24.4h-220c-13.8,0-25-11.2-25-25
		s11.2-25,25-25h220c41,0,74.4,33.4,74.4,74.4v472.2C830.7,793.2,797.4,826.6,756.4,826.6z"/> </g> <g> <path class="st0" d="M520.2,588.4c-12.6,0-23.4-9.5-24.8-22.3c-13.5-124.3-67.9-218.8-161.7-280.8c-70-46.3-135.8-56.2-136.5-56.3
		c-13.7-2-23.2-14.6-21.2-28.3c2-13.7,14.6-23.2,28.3-21.2c3.1,0.4,77.7,11.6,157,64.1c46.7,30.9,85.6,69.9,115.4,115.7
		c37.1,57,60.1,124.8,68.4,201.3c1.5,13.7-8.4,26.1-22.1,27.6C522,588.3,521.1,588.4,520.2,588.4z"/> </g> <g> <path class="st0" d="M525.3,605.7c-4.9,0-9.9-1.4-14.2-4.4L361,497.6c-11.4-7.8-14.2-23.4-6.4-34.8c7.8-11.4,23.4-14.2,34.8-6.4
		l130.8,90.3l96.5-123.4c8.5-10.9,24.2-12.8,35.1-4.3c10.9,8.5,12.8,24.2,4.3,35.1L545,596.1C540.1,602.3,532.7,605.7,525.3,605.7z"/> </g> 
    </symbol>
    <symbol id="inputdown" viewBox="0 0 1024 1024">
        <g> <path class="st0" d="M559.962,807.118L921.27,445.863c26.565-26.565,26.565-69.692,0-96.268c-26.673-26.565-69.757-26.565-96.322,0
		l-313.04,312.977L198.75,349.595c-26.544-26.565-69.628-26.565-96.322,0c-26.554,26.577-26.554,69.703,0,96.268l361.318,361.255
		C490.323,833.726,533.396,833.726,559.962,807.118L559.962,807.118z"/> </g> 
    </symbol>
    <symbol id="list" viewBox="0 0 1000 1000">
        <g> <path d="M852.3,331.6H316.4c-13.8,0-25-11.2-25-25s11.2-25,25-25h535.9c13.8,0,25,11.2,25,25S866.1,331.6,852.3,331.6z"/> </g> <g> <path d="M852.3,539.6H316.4c-13.8,0-25-11.2-25-25s11.2-25,25-25h535.9c13.8,0,25,11.2,25,25S866.1,539.6,852.3,539.6z"/> </g> <g> <path d="M852.3,733.5H316.4c-13.8,0-25-11.2-25-25s11.2-25,25-25h535.9c13.8,0,25,11.2,25,25S866.1,733.5,852.3,733.5z"/> </g> <g> <circle cx="166.5" cy="306.6" r="36.7"/> </g> <g> <circle cx="166.5" cy="501.2" r="36.7"/> </g> <g> <circle cx="166.5" cy="708.5" r="36.7"/> </g> 
    </symbol>
    <symbol id="process" viewBox="0 0 1000 1000">
       <g> <path fill="#020000" d="M163.3,597.5c-13.8,0-25-11.2-25-25c0-82.5,29.7-162.3,83.7-224.6c29.7-34.3,65.2-61.9,105.6-82.2
		c12.3-6.2,27.4-1.2,33.6,11.1s1.2,27.4-11.1,33.6c-34.5,17.3-64.9,40.9-90.3,70.2c-46.1,53.2-71.5,121.3-71.5,191.8
		C188.3,586.3,177.1,597.5,163.3,597.5z"/> </g> <g> <path fill="#020000" d="M481.3,915.5c-74.9,0-146.1-23.7-205.8-68.6c-11-8.3-13.3-24-5-35c8.3-11,24-13.3,35-5
		c51,38.3,111.8,58.6,175.8,58.6c58.4,0,114.8-17.1,163.1-49.5c11.5-7.7,27-4.6,34.7,6.8c7.7,11.5,4.6,27-6.8,34.7
		C615.7,895.5,549.7,915.5,481.3,915.5z"/> </g> <g> <path fill="#020000" d="M798.3,624.2c-0.7,0-1.4,0-2.1-0.1c-13.8-1.1-24-13.2-22.8-27c0.7-8.1,1-16.4,1-24.7
		c0-113.2-66.3-217.4-168.9-265.5c-12.5-5.9-17.9-20.7-12-33.2s20.7-17.9,33.2-12C684.9,289,734.2,332,769.3,386
		c36,55.5,55.1,120,55.1,186.5c0,9.6-0.4,19.3-1.2,28.8C822.1,614.4,811.1,624.2,798.3,624.2z"/> </g> <g> <path fill="#020000" d="M206.7,819.9c-58.9,0-106.8-47.9-106.8-106.8c0-58.9,47.9-106.8,106.8-106.8s106.8,47.9,106.8,106.8
		C313.5,772,265.6,819.9,206.7,819.9z M206.7,656.3c-31.3,0-56.8,25.5-56.8,56.8s25.5,56.8,56.8,56.8s56.8-25.5,56.8-56.8
		S238,656.3,206.7,656.3z"/> </g> <g> <path fill="#020000" d="M478.8,359.9C419.9,359.9,372,312,372,253.1s47.9-106.8,106.8-106.8c58.9,0,106.8,47.9,106.8,106.8
		S537.7,359.9,478.8,359.9z M478.8,196.3c-31.3,0-56.8,25.5-56.8,56.8s25.5,56.8,56.8,56.8s56.8-25.5,56.8-56.8
		S510.1,196.3,478.8,196.3z"/> </g> <g> <path fill="#020000" d="M750.8,835.9C691.9,835.9,644,788,644,729.1c0-58.9,47.9-106.8,106.8-106.8c58.9,0,106.8,47.9,106.8,106.8
		C857.7,788,809.7,835.9,750.8,835.9z M750.8,672.3c-31.3,0-56.8,25.5-56.8,56.8s25.5,56.8,56.8,56.8s56.8-25.5,56.8-56.8
		S782.2,672.3,750.8,672.3z"/> </g> 
    </symbol>
    <symbol id="return" viewBox="0 0 1000 1000">
        <g> <path d="M782.9,582.8H629.2c-13.8,0-25-11.2-25-25c0-13.8,11.2-25,25-25h137.3l-91.2-313h-371l-70.9,313h147.7
		c13.8,0,25,11.2,25,25c0,13.8-11.2,25-25,25h-163c-21,0-38.1-17.1-38.1-38.1v-2.8l76.5-337.6c1.8-19.4,18.1-34.6,37.9-34.6h390.3
		c19.5,0,35.6,14.7,37.8,33.6L821,541.1v3.6C821,565.7,803.9,582.8,782.9,582.8z"/> </g> <g> <path d="M788.4,830.3H211.6c-21,0-38.1-17.1-38.1-38.1V569.8c0-21,17.1-38.1,38.1-38.1h168.4c13.8,0,25,11.2,25,25
		c0,13.8-11.2,25-25,25H223.6v198.6h552.9V581.7H630.3c-13.8,0-25-11.2-25-25c0-13.8,11.2-25,25-25h158.1c21,0,38.1,17.1,38.1,38.1
		v222.4C826.4,813.2,809.4,830.3,788.4,830.3z"/> </g> <g> <path d="M600.1,680.9H407.5c-28,0-50.8-22.8-50.8-50.8v-69.8c0-13.8,11.2-25,25-25c13.8,0,25,11.2,25,25v69.8
		c0,0.4,0.4,0.8,0.8,0.8h192.6c0.4,0,0.8-0.4,0.8-0.8v-73.4c0-13.8,11.2-25,25-25c13.8,0,25,11.2,25,25v73.4
		C650.9,658.1,628.1,680.9,600.1,680.9z"/> </g> <g> <path d="M500.5,567.9c-13.8,0-25-11.2-25-25V362.2L408.1,422c-10.3,9.2-26.1,8.2-35.3-2.1c-9.2-10.3-8.2-26.1,2.1-35.3L484,288
		c7.4-6.5,17.9-8.1,26.8-4.1c9,4,14.7,13,14.7,22.8v236.2C525.5,556.7,514.4,567.9,500.5,567.9z"/> </g> <g> <path d="M605.9,428.3c-6,0-12.1-2.2-16.9-6.6l-105.4-96.7c-10.2-9.3-10.9-25.1-1.5-35.3c9.3-10.2,25.1-10.9,35.3-1.5l105.4,96.7
		c10.2,9.3,10.9,25.1,1.5,35.3C619.4,425.6,612.7,428.3,605.9,428.3z"/> </g> 
    </symbol>
    <symbol id="search2" viewBox="0 0 1000 1000">
        <g> <path class="st1" d="M887.6,880.3L887.6,880.3L887.6,880.3L887.6,880.3c7.3,8.5,11,18,11,28.3c0,11.6-4.1,21.5-12.4,29.7
		c-7.8,8-18.5,12.5-29.7,12.4c-4.9,0-9.6-0.8-14.2-2.3c-4.5-1.5-8.7-3.8-12.4-6.8l-4.6-3.7l-226-227.6
		c-54.3,38.4-115,57.6-182.1,57.6c-6.7,0-13.6-0.3-20.6-0.9c-6.9-0.6-13.8-1.5-20.6-2.8c-46.5-5.3-91-21.6-130-47.6
		c-42.7-27.4-76.8-63.7-102.5-108.8c-12.3-21-22-43.4-28.8-66.7c-7-23.5-11.3-47.7-12.8-72.2c-1.5-24.5-0.1-49,4.1-73.1
		c6.1-39,19.8-76.4,40.3-110.2c20.3-33.9,47-63.6,78.7-87.3c26.8-21.3,56.9-37.8,90.1-49.4c32.8-11.5,67.3-17.4,102-17.4
		c14.7,0,28.7,0.9,42.1,2.8c36,4.9,70.4,15.8,103.4,32.9c32.4,16.6,61.5,38.9,86,65.8c28.6,29.9,50.4,65.2,65.4,106.1
		c15,40.8,21.5,82.3,19.7,124.3c-2.4,70.1-26.5,133.2-72.3,189.3l226.9,227.6H887.6L887.6,880.3z M686.3,462.5
		c2-37.5-4.2-74.9-18.3-109.7c-8-21.4-18.7-41.7-32-60.3c-13.4-18.9-29.1-35.8-47.1-50.7c-17.7-14.8-37.2-27.2-58.1-37
		c-44.6-20.7-94-28.6-142.7-22.8c-2.8,0-5.5,0.3-8.2,0.9l-5.5,0.9c-39,6.1-76.1,20.9-108.4,43.4c-32.5,22.1-59.6,51.3-79.1,85.5
		c-22.6,37.2-34.9,78.6-37.1,124.3c-2.1,45.7,6.2,88.1,25.2,127.1c15.8,35.3,39.4,66.6,69.1,91.4c29.4,25.2,63.9,43.6,101.1,54
		c39,11,78.4,13.1,118,6.4c20.8-3.7,41.1-9.8,60.4-18.3c19.3-8.4,37.5-19,54.4-31.5c16.8-12.5,32.2-27,45.8-43
		c13.7-16.2,25.2-33.7,34.3-52.6v0C675,536.9,684.7,500.1,686.3,462.5L686.3,462.5z"/> </g> 
    </symbol>
    <symbol id="speed" viewBox="0 0 1000 1000">
        <g> <path class="st0" d="M815.5,310.6H499.9c-13.8,0-25-11.2-25-25s11.2-25,25-25h315.5c13.8,0,25,11.2,25,25S829.3,310.6,815.5,310.6z
		"/> </g> <g> <path class="st0" d="M308.5,310.6H200.2c-13.8,0-25-11.2-25-25s11.2-25,25-25h108.3c13.8,0,25,11.2,25,25S322.3,310.6,308.5,310.6z
		"/> </g> <g> <path class="st0" d="M815.5,539H643.9c-13.8,0-25-11.2-25-25s11.2-25,25-25h171.6c13.8,0,25,11.2,25,25S829.3,539,815.5,539z"/> </g> <g> <path class="st0" d="M455.9,539H200.2c-13.8,0-25-11.2-25-25s11.2-25,25-25h255.8c13.8,0,25,11.2,25,25S469.7,539,455.9,539z"/> </g> <g> <path class="st0" d="M815.5,773.7H586.1c-13.8,0-25-11.2-25-25s11.2-25,25-25h229.4c13.8,0,25,11.2,25,25S829.3,773.7,815.5,773.7z
		"/> </g> <g> <path class="st0" d="M398.4,773.7H200.2c-13.8,0-25-11.2-25-25s11.2-25,25-25h198.2c13.8,0,25,11.2,25,25S412.2,773.7,398.4,773.7z
		"/> </g> <g> <path class="st0" d="M403.9,398.7c-61.9,0-112.2-50.3-112.2-112.2s50.3-112.2,112.2-112.2s112.2,50.3,112.2,112.2
		S465.8,398.7,403.9,398.7z M403.9,224.2c-34.3,0-62.2,27.9-62.2,62.2s27.9,62.2,62.2,62.2s62.2-27.9,62.2-62.2
		S438.2,224.2,403.9,224.2z"/> </g> <g> <path class="st0" d="M550.6,623.1c-61.9,0-112.2-50.3-112.2-112.2s50.3-112.2,112.2-112.2c61.9,0,112.2,50.3,112.2,112.2
		S612.5,623.1,550.6,623.1z M550.6,448.6c-34.3,0-62.2,27.9-62.2,62.2s27.9,62.2,62.2,62.2s62.2-27.9,62.2-62.2
		S584.9,448.6,550.6,448.6z"/> </g> <g> <path class="st0" d="M491.2,860.9c-61.9,0-112.2-50.3-112.2-112.2c0-61.9,50.3-112.2,112.2-112.2s112.2,50.3,112.2,112.2
		C603.4,810.6,553,860.9,491.2,860.9z M491.2,686.5c-34.3,0-62.2,27.9-62.2,62.2c0,34.3,27.9,62.2,62.2,62.2s62.2-27.9,62.2-62.2
		C553.4,714.4,525.5,686.5,491.2,686.5z"/> </g> 
    </symbol>
    <symbol id="summary" viewBox="0 0 1000 1000">
        <g> <path d="M743.6,824H259.2c-43.5,0-78.8-35.4-78.8-78.8V254.4c0-43.5,35.4-78.8,78.8-78.8h83.4c13.8,0,25,11.2,25,25s-11.2,25-25,25
		h-83.4c-15.9,0-28.8,12.9-28.8,28.8v490.8c0,15.9,12.9,28.8,28.8,28.8h484.5c15.9,0,28.8-12.9,28.8-28.8V254.4
		c0-15.9-12.9-28.8-28.8-28.8h-91.1c-13.8,0-25-11.2-25-25s11.2-25,25-25h91.1c43.5,0,78.8,35.4,78.8,78.8v490.8
		C822.5,788.6,787.1,824,743.6,824z"/> </g> <g> <path d="M642.5,320.9H360.9c-13.8,0-25-11.2-25-25V143.7c0-13.8,11.2-25,25-25h48c13.8,0,25,11.2,25,25s-11.2,25-25,25h-23v102.2
		h231.6V168.7h-24.9c-13.8,0-25-11.2-25-25s11.2-25,25-25h49.9c13.8,0,25,11.2,25,25v152.2C667.5,309.7,656.3,320.9,642.5,320.9z"/> </g> <g> <path d="M673.2,461.7H332c-13.8,0-25-11.2-25-25s11.2-25,25-25h341.2c13.8,0,25,11.2,25,25S687,461.7,673.2,461.7z"/> </g> <g> <path d="M673.2,571.9H332c-13.8,0-25-11.2-25-25s11.2-25,25-25h341.2c13.8,0,25,11.2,25,25S687,571.9,673.2,571.9z"/> </g> <g> <path d="M673.2,686.2H332c-13.8,0-25-11.2-25-25s11.2-25,25-25h341.2c13.8,0,25,11.2,25,25S687,686.2,673.2,686.2z"/> </g> <g> <path d="M413.7,164.2c-6.2,0-12.4-2.3-17.2-6.9c-10-9.5-10.4-25.3-0.9-35.3c26.8-28.2,63.1-44.3,102-45.3
		c38.9-1,75.9,13.3,104.1,40.1c10,9.5,10.4,25.3,0.9,35.3s-25.3,10.4-35.3,0.9c-18.6-17.6-42.8-27-68.4-26.4
		c-25.5,0.6-49.3,11.2-67,29.8C426.9,161.6,420.3,164.2,413.7,164.2z"/> </g> 
    </symbol>
    <symbol id="suregou" viewBox="0 0 1000 1000">
        <g> <path d="M501,914.5c-56.9,0-112.1-11.1-164.1-33.1c-50.2-21.2-95.3-51.6-134-90.3c-38.7-38.7-69.1-83.8-90.3-134
		c-22-52-33.1-107.2-33.1-164.1S90.7,380.9,112.7,329c21.2-50.2,51.6-95.3,90.3-134c38.7-38.7,83.8-69.1,134-90.3
		c52-22,107.2-33.1,164.1-33.1s112.1,11.1,164.1,33.1c50.2,21.2,95.3,51.6,134,90.3c38.7,38.7,69.1,83.8,90.3,134
		c22,52,33.1,107.2,33.1,164.1s-11.1,112.1-33.1,164.1c-21.2,50.2-51.6,95.3-90.3,134c-38.7,38.7-83.8,69.1-134,90.3
		C613.1,903.3,557.9,914.5,501,914.5z M501,121.5c-204.8,0-371.5,166.6-371.5,371.5S296.2,864.5,501,864.5S872.5,697.8,872.5,493
		S705.8,121.5,501,121.5z"/> </g> <g> <path d="M409.4,667.3c-6.4,0-12.8-2.4-17.7-7.3L236.5,504.7c-9.8-9.8-9.8-25.6,0-35.4c9.8-9.8,25.6-9.8,35.4,0l137.8,137.8
		L704.1,322c9.9-9.6,25.7-9.4,35.4,0.6c9.6,9.9,9.4,25.7-0.6,35.4L426.8,660.3C421.9,665,415.7,667.3,409.4,667.3z"/> </g> 
    </symbol>
    <symbol id="time" viewBox="0 0 1000 1000">
        <g> <path class="st0" d="M505.7,929.5c-57.1,0-112.4-11.2-164.6-33.2c-50.4-21.3-95.6-51.8-134.4-90.6c-38.8-38.8-69.3-84-90.6-134.4
		c-22.1-52.1-33.2-107.5-33.2-164.6s11.2-112.4,33.2-164.6c21.3-50.4,51.8-95.6,90.6-134.4c38.8-38.8,84-69.3,134.4-90.6
		c52.1-22.1,107.5-33.2,164.6-33.2s112.4,11.2,164.6,33.2c50.4,21.3,95.6,51.8,134.4,90.6c38.8,38.8,69.3,84,90.6,134.4
		c22.1,52.1,33.2,107.5,33.2,164.6s-11.2,112.4-33.2,164.6c-21.3,50.4-51.8,95.6-90.6,134.4c-38.8,38.8-84,69.3-134.4,90.6
		C618.2,918.4,562.8,929.5,505.7,929.5z M505.7,133.9c-205.6,0-372.8,167.2-372.8,372.8s167.2,372.8,372.8,372.8
		s372.8-167.2,372.8-372.8S711.3,133.9,505.7,133.9z"/> </g> <g> <path class="st0" d="M505.7,596.6c-49.6,0-89.9-40.3-89.9-89.9s40.3-89.9,89.9-89.9s89.9,40.3,89.9,89.9S555.3,596.6,505.7,596.6z
		 M505.7,466.8c-22,0-39.9,17.9-39.9,39.9s17.9,39.9,39.9,39.9c22,0,39.9-17.9,39.9-39.9S527.7,466.8,505.7,466.8z"/> </g> <g> <path class="st0" d="M504.3,465.6c-13.8,0-25-11.2-25-25V189.7c0-13.8,11.2-25,25-25c13.8,0,25,11.2,25,25v250.9
		C529.3,454.4,518.1,465.6,504.3,465.6z"/> </g> <g> <path class="st0" d="M824.4,531.7H573.5c-13.8,0-25-11.2-25-25s11.2-25,25-25h250.9c13.8,0,25,11.2,25,25S838.2,531.7,824.4,531.7z
		"/> </g> <g> <circle class="st1" cx="231.2" cy="348.2" r="23.3"/> <path class="st0" d="M231.2,374c-9.2,0-17.7-4.9-22.3-12.9c-3.4-6-4.4-12.9-2.6-19.6c1.8-6.6,6-12.2,12-15.6
		c3.9-2.3,8.4-3.5,12.9-3.5c9.2,0,17.7,4.9,22.3,12.9c7.1,12.3,2.9,28.1-9.4,35.2C240.2,372.8,235.7,374,231.2,374z M231.2,327.4
		c-3.6,0-7.2,1-10.4,2.8c-4.8,2.8-8.2,7.3-9.7,12.6s-0.7,11,2.1,15.8c3.7,6.4,10.6,10.4,18,10.4c3.6,0,7.2-1,10.4-2.8
		c9.9-5.7,13.3-18.5,7.6-28.4C245.5,331.4,238.6,327.4,231.2,327.4z"/> </g> <g> <circle class="st1" cx="231.2" cy="665.2" r="23.3"/> <path class="st0" d="M231.2,691c-14.2,0-25.8-11.6-25.8-25.8c0-14.2,11.6-25.8,25.8-25.8S257,651,257,665.2
		C257,679.4,245.4,691,231.2,691z M231.2,644.4c-11.5,0-20.8,9.3-20.8,20.8s9.3,20.8,20.8,20.8s20.8-9.3,20.8-20.8
		S242.6,644.4,231.2,644.4z"/> </g> <g> <circle class="st1" cx="505.7" cy="823.7" r="23.3"/> <path class="st0" d="M505.7,849.5c-4.5,0-8.9-1.2-12.9-3.5c-12.3-7.1-16.5-22.9-9.4-35.2c4.6-8,13.2-12.9,22.3-12.9
		c4.5,0,8.9,1.2,12.9,3.5c12.3,7.1,16.5,22.9,9.4,35.2C523.4,844.5,514.9,849.5,505.7,849.5z M505.7,802.9c-7.4,0-14.3,4-18,10.4
		c-5.7,9.9-2.3,22.6,7.6,28.4c3.2,1.8,6.7,2.8,10.4,2.8c7.4,0,14.3-4,18-10.4c5.7-9.9,2.3-22.6-7.6-28.4
		C512.9,803.9,509.4,802.9,505.7,802.9z"/> </g> <g> <circle class="st1" cx="780.2" cy="665.2" r="23.3"/> <path class="st0" d="M780.2,691c-9.2,0-17.8-4.9-22.3-12.9c-7.1-12.3-2.9-28.1,9.4-35.2c3.9-2.3,8.4-3.5,12.9-3.5
		c9.2,0,17.8,4.9,22.3,12.9c7.1,12.3,2.9,28.1-9.4,35.2C789.2,689.8,784.7,691,780.2,691z M780.2,644.4c-3.6,0-7.2,1-10.4,2.8
		c-9.9,5.7-13.3,18.5-7.6,28.4c3.7,6.4,10.6,10.4,18,10.4c3.6,0,7.2-1,10.4-2.8c9.9-5.7,13.3-18.5,7.6-28.4
		C794.5,648.4,787.6,644.4,780.2,644.4z"/> </g> <g> <circle class="st1" cx="780.2" cy="348.2" r="23.3"/> <path class="st0" d="M780.2,374c-14.2,0-25.8-11.6-25.8-25.8c0-14.2,11.6-25.8,25.8-25.8c14.2,0,25.8,11.6,25.8,25.8
		C806,362.4,794.4,374,780.2,374z M780.2,327.4c-11.5,0-20.8,9.3-20.8,20.8s9.3,20.8,20.8,20.8c11.5,0,20.8-9.3,20.8-20.8
		S791.7,327.4,780.2,327.4z"/> </g> 
    </symbol>
    <symbol id="transfer" viewBox="0 0 1000 1000">
       <g> <path fill="#020000" d="M163.3,597.5c-13.8,0-25-11.2-25-25c0-82.5,29.7-162.3,83.7-224.6c29.7-34.3,65.2-61.9,105.6-82.2
		c12.3-6.2,27.4-1.2,33.6,11.1s1.2,27.4-11.1,33.6c-34.5,17.3-64.9,40.9-90.3,70.2c-46.1,53.2-71.5,121.3-71.5,191.8
		C188.3,586.3,177.1,597.5,163.3,597.5z"/> </g> <g> <path fill="#020000" d="M481.3,915.5c-74.9,0-146.1-23.7-205.8-68.6c-11-8.3-13.3-24-5-35c8.3-11,24-13.3,35-5
		c51,38.3,111.8,58.6,175.8,58.6c58.4,0,114.8-17.1,163.1-49.5c11.5-7.7,27-4.6,34.7,6.8c7.7,11.5,4.6,27-6.8,34.7
		C615.7,895.5,549.7,915.5,481.3,915.5z"/> </g> <g> <path fill="#020000" d="M798.3,624.2c-0.7,0-1.4,0-2.1-0.1c-13.8-1.1-24-13.2-22.8-27c0.7-8.1,1-16.4,1-24.7
		c0-113.2-66.3-217.4-168.9-265.5c-12.5-5.9-17.9-20.7-12-33.2s20.7-17.9,33.2-12C684.9,289,734.2,332,769.3,386
		c36,55.5,55.1,120,55.1,186.5c0,9.6-0.4,19.3-1.2,28.8C822.1,614.4,811.1,624.2,798.3,624.2z"/> </g> <g> <path fill="#020000" d="M206.7,819.9c-58.9,0-106.8-47.9-106.8-106.8c0-58.9,47.9-106.8,106.8-106.8s106.8,47.9,106.8,106.8
		C313.5,772,265.6,819.9,206.7,819.9z M206.7,656.3c-31.3,0-56.8,25.5-56.8,56.8s25.5,56.8,56.8,56.8s56.8-25.5,56.8-56.8
		S238,656.3,206.7,656.3z"/> </g> <g> <path fill="#020000" d="M478.8,359.9C419.9,359.9,372,312,372,253.1s47.9-106.8,106.8-106.8c58.9,0,106.8,47.9,106.8,106.8
		S537.7,359.9,478.8,359.9z M478.8,196.3c-31.3,0-56.8,25.5-56.8,56.8s25.5,56.8,56.8,56.8s56.8-25.5,56.8-56.8
		S510.1,196.3,478.8,196.3z"/> </g> <g> <path fill="#020000" d="M750.8,835.9C691.9,835.9,644,788,644,729.1c0-58.9,47.9-106.8,106.8-106.8c58.9,0,106.8,47.9,106.8,106.8
		C857.7,788,809.7,835.9,750.8,835.9z M750.8,672.3c-31.3,0-56.8,25.5-56.8,56.8s25.5,56.8,56.8,56.8s56.8-25.5,56.8-56.8
		S782.2,672.3,750.8,672.3z"/> </g> 
    </symbol>
    <symbol id="upload" viewBox="0 0 1000 1000">
        <g> <path d="M549.7,825.2c-4.2,0-8.4-1-12.3-3.3c-12-6.8-16.2-22.1-9.4-34.1l221.2-390c5.7-10.1,9.4-20.8,11-31.7
		c9.2-65.1-11.9-127.3-58-170.6c-46.3-43.6-111.2-62-173.5-49.2c-51.8,10.6-96.4,43.9-122.1,91.4L202.8,613
		c-6.6,12.1-21.8,16.6-33.9,10c-12.1-6.6-16.6-21.8-10-33.9l203.8-375.3c32.8-60.4,89.7-102.9,156-116.5
		c78.2-16,159.7,7.1,217.8,61.8c58.1,54.6,84.7,132.6,73.2,214c-2.4,17.2-8.2,33.8-17,49.4l-221.2,390
		C566.9,820.6,558.4,825.2,549.7,825.2z"/> </g> <g> <path d="M306.6,693.9c-3.9,0-7.9-0.9-11.6-2.9c-12.2-6.4-16.9-21.5-10.5-33.7l197.1-375.9c6.4-12.2,21.5-16.9,33.7-10.5
		c12.2,6.4,16.9,21.5,10.5,33.7L328.8,680.5C324.3,689,315.6,693.9,306.6,693.9z"/> </g> <g> <path d="M425.4,779.1c-3.9,0-7.9-0.9-11.6-2.9c-12.2-6.4-17-21.5-10.5-33.7l206.8-394.9c6.4-12.2,21.5-17,33.7-10.5
		c12.2,6.4,17,21.5,10.5,33.7L447.6,765.7C443.1,774.2,434.4,779.1,425.4,779.1z"/> </g> <g> <path d="M633.8,381.8c-3.3,0-6.7-0.7-9.9-2c-12.7-5.5-18.5-20.2-13.1-32.9c1.9-4.4,3.1-9.1,3.6-14c2.7-26.2-16.4-49.7-42.6-52.5
		c-20.9-2.2-40.5,9.3-48.8,28.6c-5.5,12.7-20.2,18.5-32.9,13.1c-12.7-5.5-18.5-20.2-13.1-32.9c8.2-19,21.9-34.7,39.8-45.3
		c18.2-10.9,39-15.4,60.2-13.2c53.6,5.6,92.7,53.8,87.1,107.4c-1,9.9-3.5,19.5-7.4,28.6C652.7,376.1,643.4,381.8,633.8,381.8z"/> </g> <g> <path d="M310.2,833.6c-92.9,0-168.5-75.6-168.5-168.5c0-24.5,8.3-55.4,16-73.8c5.4-12.7,20-18.7,32.7-13.3
		c12.7,5.4,18.7,20,13.3,32.7c-6,14.2-12.1,38.4-12.1,54.4c0,65.3,53.1,118.5,118.5,118.5c39.4,0,74.1-16.2,95.1-44.4
		c8.2-11.1,23.9-13.4,35-5.1c11.1,8.2,13.4,23.9,5.1,35C414.9,810.1,365.6,833.6,310.2,833.6z"/> </g> 
    </symbol>
    <symbol id="add" viewBox="0 0 1000 1000">
        <g> <path class="st2" d="M501.7,934c-57.3,0-112.9-11.2-165.3-33.4c-50.6-21.4-96-52-135-91c-39-39-69.6-84.4-91-135
		c-22.2-52.4-33.4-108-33.4-165.3c0-57.3,11.2-112.9,33.4-165.3c21.4-50.6,52-96,91-135s84.4-69.6,135-91
		c52.4-22.2,108-33.4,165.3-33.4S614.7,95.9,667,118.1c50.6,21.4,96,52,135,91c39,39,69.6,84.4,91,135
		c22.2,52.4,33.4,108,33.4,165.3c0,57.3-11.2,112.9-33.4,165.3c-21.4,50.6-52,96-91,135c-39,39-84.4,69.6-135,91
		C614.7,922.8,559.1,934,501.7,934z M501.7,134.7c-206.6,0-374.7,168.1-374.7,374.7S295.2,884,501.7,884s374.7-168.1,374.7-374.7
		S708.3,134.7,501.7,134.7z"/> </g> <g> <path class="st2" d="M491.9,775.2c-13.8,0-25-11.2-25-25V281.9c0-13.8,11.2-25,25-25s25,11.2,25,25v468.3
		C516.9,764,505.7,775.2,491.9,775.2z"/> </g> <g> <path class="st2" d="M719.6,541H251.3c-13.8,0-25-11.2-25-25c0-13.8,11.2-25,25-25h468.3c13.8,0,25,11.2,25,25
		C744.6,529.9,733.4,541,719.6,541z"/> </g> 
    </symbol>
    <symbol id="balance" viewBox="0 0 1000 1000">
        <g> <path class="st0" d="M499.9,903.8c-105.5,0-205.4-40.5-281.1-113.9c-75.6-73.3-119-171.5-122.4-276.6
		c-0.4-13.8,10.4-25.3,24.2-25.8c13.8-0.4,25.3,10.4,25.8,24.2c6.2,191.9,161.5,342.1,353.6,342.1c190.2,0,345.5-148.8,353.4-338.7
		c0.2-5,0.3-10.1,0.3-15.1c0-195.1-158.7-353.8-353.8-353.8c-151.5,0-286.1,96.3-334.9,239.6c-4.5,13.1-18.7,20.1-31.7,15.6
		c-13.1-4.5-20.1-18.7-15.6-31.7c13.4-39.4,32.8-76.3,57.7-109.8c24.6-33.1,53.9-62.2,87.3-86.5c69.3-50.4,151.4-77.1,237.3-77.1
		c54.5,0,107.4,10.7,157.2,31.7c48.1,20.3,91.3,49.4,128.3,86.5c37.1,37.1,66.2,80.3,86.5,128.3c21.1,49.8,31.7,102.7,31.7,157.2
		c0,5.7-0.1,11.5-0.4,17.2c-4.4,104.2-48.3,201.5-123.6,273.9C704.1,863.8,604.8,903.8,499.9,903.8z"/> </g> <g> <path class="st0" d="M637.1,667.7c-0.1,0-0.2,0-0.3,0c-10.1-0.1-19.1-6.3-22.9-15.7l-123-305.8L388.6,584.9
		c-3.7,8.6-11.8,14.4-21.1,15.1c-9.3,0.7-18.2-3.9-23.1-11.8l-76.5-124l-42,65.4c-4.6,7.2-12.5,11.5-21,11.5h-81.1
		c-13.8,0-25-11.2-25-25c0-13.8,11.2-25,25-25h67.4l56.1-87.3c4.6-7.2,12.7-11.5,21.3-11.5c8.6,0.1,16.5,4.6,21,11.9l72,116.8
		l107-249.7c3.9-9.2,13-15.2,23-15.2c0.1,0,0.2,0,0.3,0c10.1,0.1,19.1,6.3,22.9,15.7L638,577.9l64.3-148c3.6-8.3,11.4-14,20.3-14.9
		c9-0.9,17.7,3,23,10.4l46.8,65.8h69.1c13.8,0,25,11.2,25,25c0,13.8-11.2,25-25,25h-82c-8.1,0-15.7-3.9-20.4-10.5l-28.6-40.2
		L660,652.7C656,661.8,647,667.7,637.1,667.7z"/> </g> 
    </symbol>
    <symbol id="collect" viewBox="0 0 1000 1000">
        <g> <path d="M743.6,824H259.2c-43.5,0-78.8-35.4-78.8-78.8V254.4c0-43.5,35.4-78.8,78.8-78.8h83.4c13.8,0,25,11.2,25,25s-11.2,25-25,25
		h-83.4c-15.9,0-28.8,12.9-28.8,28.8v490.8c0,15.9,12.9,28.8,28.8,28.8h484.5c15.9,0,28.8-12.9,28.8-28.8V254.4
		c0-15.9-12.9-28.8-28.8-28.8h-91.1c-13.8,0-25-11.2-25-25s11.2-25,25-25h91.1c43.5,0,78.8,35.4,78.8,78.8v490.8
		C822.5,788.6,787.1,824,743.6,824z"/> </g> <g> <path d="M642.5,320.9H360.9c-13.8,0-25-11.2-25-25V143.7c0-13.8,11.2-25,25-25h48c13.8,0,25,11.2,25,25s-11.2,25-25,25h-23v102.2
		h231.6V168.7h-24.9c-13.8,0-25-11.2-25-25s11.2-25,25-25h49.9c13.8,0,25,11.2,25,25v152.2C667.5,309.7,656.3,320.9,642.5,320.9z"/> </g> <g> <path d="M673.2,461.7H332c-13.8,0-25-11.2-25-25s11.2-25,25-25h341.2c13.8,0,25,11.2,25,25S687,461.7,673.2,461.7z"/> </g> <g> <path d="M673.2,571.9H332c-13.8,0-25-11.2-25-25s11.2-25,25-25h341.2c13.8,0,25,11.2,25,25S687,571.9,673.2,571.9z"/> </g> <g> <path d="M673.2,686.2H332c-13.8,0-25-11.2-25-25s11.2-25,25-25h341.2c13.8,0,25,11.2,25,25S687,686.2,673.2,686.2z"/> </g> <g> <path d="M413.7,164.2c-6.2,0-12.4-2.3-17.2-6.9c-10-9.5-10.4-25.3-0.9-35.3c26.8-28.2,63.1-44.3,102-45.3
		c38.9-1,75.9,13.3,104.1,40.1c10,9.5,10.4,25.3,0.9,35.3s-25.3,10.4-35.3,0.9c-18.6-17.6-42.8-27-68.4-26.4
		c-25.5,0.6-49.3,11.2-67,29.8C426.9,161.6,420.3,164.2,413.7,164.2z"/> </g> 
    </symbol>
    <symbol id="delete" viewBox="0 0 1000 1000">
        <g> <path d="M839.9,309.4H148c-13.8,0-25-11.2-25-25s11.2-25,25-25h691.8c13.8,0,25,11.2,25,25S853.7,309.4,839.9,309.4z"/> </g> <g> <path d="M703.6,309.4H280v-85.5c0-51.6,41.9-93.5,93.5-93.5h236.6c51.6,0,93.5,41.9,93.5,93.5V309.4z M330,259.4h323.6v-35.5
		c0-24-19.5-43.5-43.5-43.5H373.5c-24,0-43.5,19.5-43.5,43.5V259.4z"/> </g> <g> <path d="M680,869.6H315.4c-48,0-87-39-87-87V380.4c0-13.8,11.2-25,25-25c13.8,0,25,11.2,25,25v402.2c0,20.4,16.6,37,37,37H680
		c20.4,0,37-16.6,37-37V380.4c0-13.8,11.2-25,25-25c13.8,0,25,11.2,25,25v402.2C767.1,830.6,728,869.6,680,869.6z"/> </g> <g> <path d="M413.4,718.9c-13.8,0-25-11.2-25-25V380.4c0-13.8,11.2-25,25-25s25,11.2,25,25v313.4C438.4,707.7,427.2,718.9,413.4,718.9z
		"/> </g> <g> <path d="M572,718.9c-13.8,0-25-11.2-25-25V380.4c0-13.8,11.2-25,25-25s25,11.2,25,25v313.4C597,707.7,585.8,718.9,572,718.9z"/> </g> 
    </symbol>
    <symbol id="edit" viewBox="0 0 1000 1000">
        <g> <path d="M699.3,842H277.4c-54.6,0-99-44.4-99-99V310.1c0-54.6,44.4-99,99-99h228.8c13.8,0,25,11.2,25,25c0,13.8-11.2,25-25,25
		H277.4c-27,0-49,22-49,49V743c0,27,22,49,49,49h421.9c27,0,49-22,49-49V475.3c0-13.8,11.2-25,25-25s25,11.2,25,25V743
		C798.3,797.5,753.9,842,699.3,842z"/> </g> <g> <path d="M465,695.2c-6.6,0-12.9-2.6-17.6-7.3L319.1,560.6c-9.7-9.7-9.9-25.4-0.3-35.2l347.9-357c13.5-13.8,31.5-21.4,50.8-21.4
		c19,0,36.8,7.4,50.2,20.8l63.8,63.8c27.4,27.4,27.6,72.2,0.5,99.9L482.9,687.7c-4.7,4.8-11,7.5-17.7,7.5
		C465.1,695.2,465.1,695.2,465,695.2z M371.9,542.5l92.9,92.2l331.6-338.3c8-8.2,7.9-21.4-0.1-29.5l-63.8-63.8
		c-4-4-9.2-6.1-14.8-6.1c-5.7,0-11,2.3-15,6.3L371.9,542.5z"/> </g> <g> <path d="M289.9,736.8c-6.7,0-13.3-2.7-18.1-7.7c-6.1-6.4-8.4-15.5-6-24l46.8-169c3.7-13.3,17.5-21.1,30.8-17.4
		c13.3,3.7,21.1,17.5,17.4,30.8l-35.5,128.2c51.6-12.3,132.8-31.6,134-31.9c13.4-3.2,26.9,5.1,30.1,18.5
		c3.2,13.4-5.1,26.9-18.5,30.1c-6.6,1.6-162.3,38.6-175.3,41.6C293.6,736.6,291.7,736.8,289.9,736.8z"/> </g> <g> <path d="M772.8,379.7c-6.3,0-12.6-2.4-17.5-7.2L630.3,249.8c-9.9-9.7-10-25.5-0.3-35.4c9.7-9.9,25.5-10,35.4-0.3l125.1,122.8
		c9.9,9.7,10,25.5,0.3,35.4C785.8,377.2,779.3,379.7,772.8,379.7z"/> </g> 
    </symbol>
    <symbol id="list" viewBox="0 0 1000 1000">
        <g> <path d="M852.3,331.6H316.4c-13.8,0-25-11.2-25-25s11.2-25,25-25h535.9c13.8,0,25,11.2,25,25S866.1,331.6,852.3,331.6z"/> </g> <g> <path d="M852.3,539.6H316.4c-13.8,0-25-11.2-25-25s11.2-25,25-25h535.9c13.8,0,25,11.2,25,25S866.1,539.6,852.3,539.6z"/> </g> <g> <path d="M852.3,733.5H316.4c-13.8,0-25-11.2-25-25s11.2-25,25-25h535.9c13.8,0,25,11.2,25,25S866.1,733.5,852.3,733.5z"/> </g> <g> <circle cx="166.5" cy="306.6" r="36.7"/> </g> <g> <circle cx="166.5" cy="501.2" r="36.7"/> </g> <g> <circle cx="166.5" cy="708.5" r="36.7"/> </g> 
    </symbol>
    <symbol id="search2" viewBox="0 0 1000 1000">
        <g> <path class="st1" d="M887.6,880.3L887.6,880.3L887.6,880.3L887.6,880.3c7.3,8.5,11,18,11,28.3c0,11.6-4.1,21.5-12.4,29.7
		c-7.8,8-18.5,12.5-29.7,12.4c-4.9,0-9.6-0.8-14.2-2.3c-4.5-1.5-8.7-3.8-12.4-6.8l-4.6-3.7l-226-227.6
		c-54.3,38.4-115,57.6-182.1,57.6c-6.7,0-13.6-0.3-20.6-0.9c-6.9-0.6-13.8-1.5-20.6-2.8c-46.5-5.3-91-21.6-130-47.6
		c-42.7-27.4-76.8-63.7-102.5-108.8c-12.3-21-22-43.4-28.8-66.7c-7-23.5-11.3-47.7-12.8-72.2c-1.5-24.5-0.1-49,4.1-73.1
		c6.1-39,19.8-76.4,40.3-110.2c20.3-33.9,47-63.6,78.7-87.3c26.8-21.3,56.9-37.8,90.1-49.4c32.8-11.5,67.3-17.4,102-17.4
		c14.7,0,28.7,0.9,42.1,2.8c36,4.9,70.4,15.8,103.4,32.9c32.4,16.6,61.5,38.9,86,65.8c28.6,29.9,50.4,65.2,65.4,106.1
		c15,40.8,21.5,82.3,19.7,124.3c-2.4,70.1-26.5,133.2-72.3,189.3l226.9,227.6H887.6L887.6,880.3z M686.3,462.5
		c2-37.5-4.2-74.9-18.3-109.7c-8-21.4-18.7-41.7-32-60.3c-13.4-18.9-29.1-35.8-47.1-50.7c-17.7-14.8-37.2-27.2-58.1-37
		c-44.6-20.7-94-28.6-142.7-22.8c-2.8,0-5.5,0.3-8.2,0.9l-5.5,0.9c-39,6.1-76.1,20.9-108.4,43.4c-32.5,22.1-59.6,51.3-79.1,85.5
		c-22.6,37.2-34.9,78.6-37.1,124.3c-2.1,45.7,6.2,88.1,25.2,127.1c15.8,35.3,39.4,66.6,69.1,91.4c29.4,25.2,63.9,43.6,101.1,54
		c39,11,78.4,13.1,118,6.4c20.8-3.7,41.1-9.8,60.4-18.3c19.3-8.4,37.5-19,54.4-31.5c16.8-12.5,32.2-27,45.8-43
		c13.7-16.2,25.2-33.7,34.3-52.6v0C675,536.9,684.7,500.1,686.3,462.5L686.3,462.5z"/> </g> 
    </symbol>
    <symbol id="turnover" viewBox="0 0 1000 1000">
        <g> <path class="st0" d="M507.6,909.3c-55.3,0-108.9-10.8-159.3-32.2c-48.7-20.6-92.5-50.1-130.1-87.7c-37.6-37.6-67.1-81.4-87.7-130.1
		C109,608.9,98.2,555.3,98.2,500s10.8-108.9,32.2-159.3c20.6-48.7,50.1-92.5,87.7-130.1c37.6-37.6,81.4-67.1,130.1-87.7
		c50.5-21.4,104.1-32.2,159.3-32.2s108.9,10.8,159.3,32.2c48.7,20.6,92.5,50.1,130.1,87.7c37.6,37.6,67.1,81.4,87.7,130.1
		c21.3,50.5,32.2,104.1,32.2,159.3c0,88.5-27.8,172.7-80.3,243.5c-5.1,6.9-14,9.8-22.2,7.1c-8.2-2.6-13.7-10.2-13.9-18.7l-0.8-55.4
		c-0.2-11,8.7-20.1,19.7-20.3c0.1,0,0.2,0,0.3,0c7.6,0,14.2,4.2,17.6,10.4c26-51.3,39.6-107.9,39.6-166.7
		c0-203.7-165.7-369.3-369.3-369.3c-203.7,0-369.3,165.7-369.3,369.3c0,203.7,165.7,369.3,369.3,369.3c74,0,145.4-21.8,206.5-63.1
		c9.2-6.2,21.6-3.8,27.8,5.4c6.2,9.2,3.8,21.6-5.4,27.8C668.7,885.2,589.6,909.3,507.6,909.3z"/> </g> <g> <path class="st0" d="M608,734.5H362.7c-2,0-4-0.3-6-0.9c-2.6-0.8-26.3-8.8-46.4-34.9c-17.8-23.2-36.3-65.9-23.3-138
		c5.6-31,19.9-65.5,39.2-94.5c18.8-28.3,41.9-51.1,67.6-66.9c-4.1-6.3-8.5-13.7-12.3-21.7c-23.1-47.6-6.5-72,5.6-82.3
		c13.4-11.5,27.6-17.3,42.3-17.3c9.9,0,18.3,2.7,25,6c11.3-9.4,27.8-18,48.2-18c17,0,34.5,5.8,52,17.3c4.3-0.5,9.7-0.9,15.8-0.9
		c25.1,0,44.6,7.4,56.4,21.4c11,13,14.7,30.3,11.1,51.3c-0.3,2-1,4-2,5.9c-1.6,3-12,22.9-25.1,40.5c12.5,8.4,29.1,20.9,46.1,37.8
		c45.4,45.1,72.5,100.4,78.5,160.1c0.9,6.7,6.4,56.9-25.7,94.8c-22.3,26.3-56.4,40-101.4,40.5C608.2,734.5,608.1,734.5,608,734.5z
		 M366.5,694.5h241.4c32.8-0.4,56.8-9.3,71.2-26.4c21.7-25.6,16.7-63.1,16.6-63.5c-0.1-0.4-0.1-0.7-0.1-1.1
		c-12-122.3-123.4-178.9-124.5-179.5c-6-3-10.1-8.7-10.9-15.4c-0.8-6.6,1.7-13.2,6.7-17.6c10.2-8.9,24.3-31.6,32-45.7
		c0.7-5.6,0.5-12.1-2.7-15.8c-3.9-4.6-13.3-7.2-25.8-7.2c-9.2,0-16.6,1.5-16.7,1.5c-5.6,1.1-11.4-0.1-15.9-3.5
		c-12.8-9.5-24.7-14.3-35.2-14.3c-18.4,0-28.7,15.2-28.8,15.3c-3.5,5.4-9.1,9.1-15.6,9.4c-6.4,0.3-12.3-2.1-16.3-7.1
		c-0.8-0.8-5.9-5.7-12.5-5.7c-4.9,0-10.3,2.6-16.3,7.6c-10.9,9.4,7.6,45.8,25.8,67.9c4,4.8,5.5,11.2,4,17.3
		c-1.4,6.1-5.6,11.2-11.4,13.7c-63.2,28-97.5,101.1-105.1,143.3C309.4,662.2,355.1,689.3,366.5,694.5z"/> </g> <g> <path class="st0" d="M497.4,536.2l-62.3-77.9c-6.9-8.6-5.5-21.2,3.1-28.1c8.6-6.9,21.2-5.5,28.1,3.1l34.3,42.9l44.1-44.5
		c7.8-7.8,20.4-7.9,28.3-0.1c7.8,7.8,7.9,20.4,0.1,28.3L497.4,536.2z"/> </g> <g> <path class="st0" d="M563.6,560.8H436.7c-11,0-20-9-20-20s9-20,20-20h126.9c11,0,20,9,20,20S574.7,560.8,563.6,560.8z"/> </g> <g> <path class="st0" d="M563.6,607.5H436.7c-11,0-20-9-20-20s9-20,20-20h126.9c11,0,20,9,20,20S574.7,607.5,563.6,607.5z"/> </g> <g> <path class="st0" d="M500.2,652.7c-10.9,0-19.8-8.7-20-19.7c0-0.3-0.5-34.2-0.8-67.9c-0.2-19.8-0.2-35.8-0.1-47.3
		c0.1-7.1,0.2-12.5,0.3-16.4c0.3-7.2,0.5-14,6.5-19.9c7.8-7.8,20.5-7.8,28.3,0c5.1,5,6.8,12.1,5.4,18.6c-0.8,11.1-0.4,75,0.5,132.3
		c0.2,11-8.6,20.1-19.7,20.3C500.4,652.7,500.3,652.7,500.2,652.7z"/> </g> 
    </symbol>
    <symbol id="vacancy" viewBox="0 0 1000 1000">
        <g> <path class="st0" d="M128.4,403.6c-10.5,0-20.2-6.6-23.7-17.1c-4.4-13.1,2.7-27.3,15.8-31.6c4.3-1.4,4.3-1.4,40.6-1.5
		c19.5-0.1,48-0.1,84.7-0.1c61.9,0,147.9,0,255.8,0c183.7,0.1,369.5,0.3,371.3,0.3c13.8,0,25,11.2,25,25c0,13.8-11.2,25-25,25
		c0,0,0,0,0,0c-247.8-0.3-719.2-0.7-742.6-0.1C129.6,403.6,129,403.6,128.4,403.6z"/> </g> <g> <path class="st0" d="M793.1,430.5l-304.3-187c-2.3-1-4.5-2.3-6.4-3.9l-45.1-27.7c-15.2-9.3-35.2-6-46.6,7.8L247.4,394.1
		c-8.8,10.7-24.5,12.2-35.2,3.4c-10.7-8.8-12.2-24.5-3.4-35.2L352.2,188c13.2-16,31.7-26.8,52.2-30.2c20.5-3.4,41.5,0.7,59.2,11.5
		l40.7,25l144.4-22.1c36.9-5.7,72.2,16,83.8,51.5l0.2,0.7L793.1,430.5z M570.2,234.8l138.4,85L684.9,239
		c-4.1-12-16.1-19.3-28.6-17.3L570.2,234.8z"/> </g> <g> <path class="st0" d="M544.5,511.1H291.7c-13.8,0-25-11.2-25-25s11.2-25,25-25h252.8c13.8,0,25,11.2,25,25S558.3,511.1,544.5,511.1z
		"/> </g> <g> <path class="st0" d="M286.6,641.8c-8.1,0-16-3.9-20.8-11.1c-7.7-11.5-4.6-27,6.9-34.7c7.1-4.7,12-4.8,35.8-4.9
		c11.3-0.1,26.9,0,46.3,0.1c32.9,0.2,65.9,0.6,66.3,0.6c13.8,0.2,24.9,11.5,24.7,25.3c-0.2,13.7-11.3,24.7-25,24.7
		c-0.1,0-0.2,0-0.3,0c-55.9-0.7-118.2-1.1-129.3-0.4C289.6,641.7,288.1,641.8,286.6,641.8z"/> </g> <g> <path class="st0" d="M462,876.5H297.8c-56.5,0-102.4-45.9-102.4-102.4V387.2c0-13.8,11.2-25,25-25c13.8,0,25,11.2,25,25v386.9
		c0,28.9,23.5,52.4,52.4,52.4H462c13.8,0,25,11.2,25,25C487,865.3,475.8,876.5,462,876.5z"/> </g> <g> <path class="st0" d="M688.1,876.5h-47.3c-13.8,0-25-11.2-25-25c0-13.8,11.2-25,25-25h47.3c28.9,0,52.4-23.5,52.4-52.4V387.2
		c0-13.8,11.2-25,25-25c13.8,0,25,11.2,25,25v386.9C790.5,830.6,744.5,876.5,688.1,876.5z"/> </g> 
    </symbol></svg>